<svg version="1.2" xmlns="http://www.w3.org/2000/svg" viewBox="0 0 408 612" width="408" height="612">
	<style>
		.s0 { opacity: .84;fill: #d2e6f0 } 
		.s1 { opacity: .98;fill: #6988b1 } 
		.s2 { opacity: .98;fill: #6892b7 } 
		.s3 { opacity: .52;fill: #ccdfeb } 
		.s4 { opacity: .66;fill: #b4bbc6 } 
		.s5 { opacity: .25;fill: #4b586a } 
		.s6 { opacity: .98;fill: #6e9cc3 } 
		.s7 { opacity: .98;fill: #cfe4ef } 
		.s8 { opacity: .98;fill: #cdecf3 } 
		.s9 { opacity: .21;fill: #5e7679 } 
		.s10 { opacity: .7;fill: #c8d5e1 } 
		.s11 { opacity: .99;fill: #d4f2f4 } 
		.s12 { opacity: .21;fill: #3b4e64 } 
		.s13 { opacity: .74;fill: #d5e7f1 } 
		.s14 { opacity: .98;fill: #73a7cd } 
		.s15 { opacity: 1;fill: #f2f4f4 } 
		.s16 { opacity: 1;fill: #dfe6e9 } 
		.s17 { opacity: 1;fill: #21374a } 
		.s18 { opacity: 1;fill: #38596d } 
		.s19 { opacity: 1;fill: #334554 } 
		.s20 { opacity: 1;fill: #2a4559 } 
		.s21 { opacity: .99;fill: #3f6578 } 
		.s22 { opacity: 1;fill: #c6d3dc } 
		.s23 { opacity: 1;fill: #adecf2 } 
		.s24 { opacity: 1;fill: #21586d } 
		.s25 { opacity: .99;fill: #4a6681 } 
		.s26 { opacity: 1;fill: #214156 } 
		.s27 { opacity: 1;fill: #488398 } 
		.s28 { opacity: 1;fill: #bbc4ce } 
		.s29 { opacity: 1;fill: #85adbf } 
		.s30 { opacity: 1;fill: #adbac4 } 
		.s31 { opacity: 1;fill: #a0b0bb } 
		.s32 { opacity: 1;fill: #9aa5ad } 
		.s33 { opacity: 1;fill: #318ca1 } 
		.s34 { opacity: 1;fill: #49a2b2 } 
		.s35 { opacity: 1;fill: #7ae6ed } 
		.s36 { opacity: .33;fill: #333e50 } 
		.s37 { opacity: 1;fill: #70c7e3 } 
		.s38 { opacity: 1;fill: #5abac8 } 
		.s39 { opacity: 1;fill: #1a394e } 
		.s40 { opacity: 1;fill: #8b9aa7 } 
		.s41 { opacity: 1;fill: #163246 } 
		.s42 { opacity: .79;fill: #2d3c4c } 
		.s43 { opacity: 1;fill: #8b949c } 
		.s44 { opacity: .2;fill: #273344 } 
		.s45 { opacity: 1;fill: #25788f } 
		.s46 { opacity: 1;fill: #828d9b } 
		.s47 { opacity: 1;fill: #192a3c } 
		.s48 { opacity: 1;fill: #122b3e } 
		.s49 { opacity: 1;fill: #7c8492 } 
		.s50 { opacity: 1;fill: #6b8998 } 
		.s51 { opacity: 1;fill: #808ca2 } 
		.s52 { opacity: .99;fill: #5f7888 } 
		.s53 { opacity: .74;fill: #517585 } 
		.s54 { opacity: 1;fill: #262e3d } 
		.s55 { opacity: 1;fill: #1d4962 } 
		.s56 { opacity: .66;fill: #9f9ea5 } 
		.s57 { opacity: .65;fill: #505c6c } 
		.s58 { opacity: 1;fill: #73c2ca } 
		.s59 { opacity: 1;fill: #1e627a } 
		.s60 { opacity: 1;fill: #3a748b } 
		.s61 { opacity: 1;fill: #c603fb } 
		.s62 { opacity: .99;fill: #ab0b0c } 
		.s63 { opacity: 1;fill: #a4f008 } 
		.s64 { opacity: .53;fill: #84868e } 
		.s65 { opacity: 1;fill: #96ecf1 } 
		.s66 { opacity: .99;fill: #5c6676 } 
		.s67 { opacity: 1;fill: #4e6174 } 
		.s68 { opacity: 1;fill: #87cde9 } 
		.s69 { opacity: .99;fill: #6e6065 } 
	</style>
	<g id="Background">
		<path id="Path 0" class="s0" d="m267 344.74c3.02 0.2 7.52 0.2 10-0.01 2.48-0.2 0-0.37-5.5-0.36-5.5 0-7.52 0.17-4.5 0.37z"/>
		<path id="Path 1" class="s0" d="m274.5 340.73c3.85 0.22 7.37 0.93 7.83 1.58q0.84 1.24 0.42-0.31c-0.32-1.15-2.13-1.52-7.83-1.58l-7.42-0.08z"/>
		<path id="Path 2" class="s1" d="m242.25 340.67c-2.41 0.19-4.03 0.76-3.75 1.33 0.28 0.55-0.18 0.77-1 0.5-0.82-0.27-1.72-0.05-2 0.5-0.28 0.55 1.19 1.26 3.25 1.57 2.06 0.31 5.44 0.31 7.5 0 3.13-0.48 3.67-0.9 3.25-2.57-0.28-1.1-1.06-1.92-1.75-1.83-0.69 0.1-3.16 0.33-5.5 0.5z"/>
		<path id="Path 3" class="s2" d="m230.68 339.69c-0.39 1-0.58 1.91-0.44 2.04 0.14 0.12 2.11 0.35 4.37 0.5 2.42 0.16 3.98-0.14 3.78-0.73-0.19-0.55-1.14-1.29-2.12-1.64-0.97-0.35-2.47-0.94-3.33-1.3-1.01-0.44-1.81-0.03-2.26 1.13z"/>
		<path id="Path 4" class="s1" d="m215.45 338.98c-0.52 0.58-2.64 1.49-4.7 2.03q-3.74 0.98-4.25-0.01c-0.27-0.55-1.17-0.77-2-0.5q-1.48 0.49-0.75-0.7 0.74-1.2-0.75-0.63c-0.82 0.32-1.35 1.2-1.16 1.95 0.22 0.87-0.48 0.64-1.89-0.62l-2.23-2c2.19 3.58 4.49 5 6.78 5.6 2.2 0.58 5.57 0.8 7.5 0.49 1.93-0.31 4.63-1.45 6-2.54 2.04-1.62 2.17-1.99 0.75-2.02-0.96-0.02-1.88-0.5-2.05-1.07-0.21-0.71-0.6-0.7-1.25 0.02z"/>
		<path id="Path 5" class="s1" d="m163.58 339.5c-0.32 0.82-0.41 1.84-0.21 2.25 0.21 0.41 2.46 1.31 5 2 2.55 0.69 5.98 1.25 7.63 1.25 1.65 0 4.12-0.45 5.5-1 2.08-0.83 2.33-1.33 1.5-3-0.81-1.62-1.33-1.79-2.73-0.87-1.1 0.71-3.6 0.87-6.75 0.45-2.76-0.37-5.76-0.76-6.67-0.88-0.91-0.11-1.53-0.54-1.38-0.95 0.16-0.41-0.07-0.75-0.51-0.75-0.43 0-1.05 0.68-1.38 1.5z"/>
		<path id="Path 6" class="s2" d="m217.5 336.67c-0.46 0.36-0.76 1.26-0.67 2 0.1 0.73 1.07 1.33 2.17 1.33 1.1 0 1.78-0.45 1.5-1-0.28-0.55 0.11-1 0.85-1 0.74 0 1.19-0.45 1-1-0.19-0.55-1.17-1-2.18-1-1.01 0-2.21 0.3-2.67 0.67z"/>
		<path id="Path 7" class="s3" d="m342.29 338.5c0 2.83 0.19 3.7 0.42 2 0.23-1.65 0.23-3.9-0.01-5-0.24-1.1-0.42 0.25-0.41 3z"/>
		<path id="Path 8" class="s4" d="m336.32 338c0 3.57 0.18 4.93 0.4 3 0.23-1.93 0.23-4.85 0-6.5-0.22-1.65-0.4-0.07-0.4 3.5z"/>
		<path id="Path 9" class="s2" d="m193.7 333.47c0.49 1.67 1.92 4.15 3.17 5.53 1.25 1.37 2.8 2.55 3.45 2.62 0.65 0.07 1.15-0.61 1.11-1.5-0.04-0.89-0.53-2.75-1.1-4.12-0.58-1.38-1.22-3.13-1.44-3.9-0.21-0.77-1.67-1.45-3.24-1.52-2.71-0.13-2.8 0.01-1.95 2.89z"/>
		<path id="Path 10" class="s2" d="m249.61 330.25c-1.62 1.1-1.68 1.52-0.48 3.5 1 1.64 1.08 2.72 0.32 4-0.58 0.96-0.92 2.54-0.75 3.5 0.16 0.96 0.97 1.75 1.8 1.75 0.82 0 2.18-1.01 3.01-2.25 0.83-1.24 1.5-3.49 1.5-5-0.01-1.51-0.46-3.65-1.01-4.75-0.55-1.1-1.35-2-1.78-2-0.42 0-1.6 0.56-2.61 1.25z"/>
		<path id="Path 11" class="s2" d="m173.18 330.13c2.02 0.51 4.49 0.66 5.5 0.33 1-0.33 1.48-0.23 1.07 0.22-0.41 0.45 0.17 1.44 1.29 2.2 1.47 0.98 1.91 2.11 1.56 4-0.27 1.44-0.07 3.3 0.44 4.12q0.93 1.49 0.94 0.25c0.01-0.69 0.81-1.14 1.77-1 1.36 0.19 1.81-0.58 2-3.5 0.14-2.06-0.2-4.65-0.75-5.75-0.55-1.1-1.68-2-2.5-2-0.82 0-1.28 0.45-1 1 0.32 0.64-0.14 0.68-1.25 0.12-0.96-0.48-4.23-0.89-7.25-0.89-5.34-0.02-5.39 0.01-1.82 0.9z"/>
		<path id="Path 12" class="s0" d="m261.35 334.5c0 4.95 0.17 7.2 0.38 5 0.21-2.2 0.21-6.25 0.01-9-0.21-2.75-0.38-0.95-0.39 4z"/>
		<path id="Path 13" class="s5" d="m260.33 332.5c0 3.85 0.18 5.2 0.4 3 0.21-2.2 0.21-5.35-0.01-7-0.22-1.65-0.4 0.15-0.39 4z"/>
		<path id="Path 14" class="s6" d="m221.46 326.77c-0.57 0.4-1.57 2.53-2.21 4.73-0.64 2.2-1.07 4.07-0.96 4.15 0.12 0.09 1.31 0.31 2.65 0.5 1.9 0.27 2.61-0.21 3.15-2.15 0.39-1.37 0.76-3.74 0.81-5.25 0.06-1.59-0.43-2.74-1.15-2.73-0.69 0-1.72 0.34-2.29 0.75z"/>
		<path id="Path 15" class="s7" d="m261.91 334.55l0.09 9.45c18.22 0 20-0.27 20-1.5 0-1.17-1.58-1.55-7.25-1.75l-7.25-0.25c-0.08-9.73-0.5-10.88-2.89-12.96l-2.79-2.45z"/>
		<path id="Path 16" class="s6" d="m236.92 326.48c-1.88 0.63-2.97 1.42-2.42 1.74 0.55 0.32 3.7 1.27 7 2.11 5.5 1.39 6.2 1.38 8.38-0.16l2.38-1.67c-3.69-1.25-6.37-1.96-8.34-2.39-2.18-0.48-4.9-0.34-7 0.37z"/>
		<path id="Path 17" class="s6" d="m167.89 325.46l-2.39 1.29c3.49 1.74 6.86 2.3 9.75 2.37 2.89 0.07 6.04 0.52 7 1 1.22 0.62 1.67 0.5 1.5-0.37-0.14-0.69-1.04-1.81-2.01-2.5-0.97-0.69-3.11-1.25-4.75-1.25-1.65 0-3.83-0.41-4.85-0.91-1.22-0.6-2.67-0.47-4.25 0.37z"/>
		<path id="Path 18" class="s7" d="m330.1 322.94c-0.05 0.58-0.55 0.83-1.1 0.56-0.55-0.27-1.23-0.05-1.5 0.5-0.27 0.55-0.05 1 0.5 1 0.55 0 1.67 0.23 2.5 0.5 0.85 0.28 1.54-0.12 1.6-0.94 0.06-0.79-0.35-1.72-0.9-2.06-0.55-0.34-1.04-0.14-1.1 0.44z"/>
		<path id="Path 19" class="s7" d="m316.26 324.47c-1.14 1.35-2.36 4.62-2.71 7.25-0.42 3.13-0.19 5.61 0.66 7.19 0.71 1.33 3.09 3.31 5.29 4.4 3.24 1.61 4.76 1.82 7.99 1.09 2.21-0.5 4.11-1.57 4.26-2.4 0.23-1.22-0.7-1.43-4.98-1.1-4.65 0.35-5.48 0.11-7.03-2-0.96-1.32-1.77-4.2-1.79-6.4-0.02-2.44 0.56-4.49 1.51-5.25 0.84-0.69 1.39-2.15 1.2-3.25-0.19-1.1-0.79-2-1.33-2-0.55 0-1.93 1.11-3.07 2.47z"/>
		<path id="Path 20" class="s7" d="m297.36 323.7c0.35 0.72 1.2 1.28 1.89 1.26 0.69-0.03 1.92 0.72 2.75 1.65 0.88 0.99 1.5 3.64 1.5 6.39 0 2.75-0.62 5.4-1.5 6.39-0.93 1.05-2.93 1.68-5.25 1.65-2.78-0.03-4.11-0.62-5.15-2.29-0.77-1.24-1.55-4.05-1.75-6.24-0.22-2.54-0.9-4.1-1.85-4.3-0.93-0.19-1.77 0.75-2.21 2.49-0.39 1.54-0.26 4.38 0.29 6.3 0.55 1.93 1.77 4.05 2.71 4.73 0.94 0.68 3.06 1.65 4.71 2.17 1.84 0.58 4.44 0.58 6.75 0.02 2.2-0.54 4.59-2.06 5.78-3.67 1.41-1.9 2.04-4.29 2.04-7.75 0-3.96-0.53-5.57-2.54-7.75-1.86-2.02-3.36-2.7-5.67-2.55-2.19 0.15-2.94 0.6-2.5 1.5z"/>
		<path id="Path 21" class="s8" d="m323 323q0 2 2 2c1.1 0 2.23-0.45 2.5-1 0.27-0.55 0.95-0.77 1.5-0.5 0.55 0.27 1 0.05 1-0.5 0-0.55-1.01-1.22-2.25-1.49-1.24-0.26-2.81-0.49-3.5-0.5-0.69 0-1.25 0.89-1.25 1.99z"/>
		<path id="Path 22" class="s8" d="m293.64 321.71c-1.58 0.22-4.05 1.57-5.5 3l-2.64 2.6c4.08 1.53 4.96 1.13 7-1.31 1.38-1.65 3.24-2.89 4.14-2.75 0.91 0.14 1.7-0.31 1.77-1 0.07-0.69-0.33-1.18-0.89-1.1-0.56 0.08-2.31 0.33-3.88 0.56z"/>
		<path id="Path 23" class="s6" d="m193.42 324.25c-0.38 2.34-0.4 4.81-0.05 5.5 0.34 0.69 1.76 1.14 3.13 1 2.24-0.22 2.5-0.7 2.5-4.5 0-3.25-0.47-4.49-2-5.25-1.1-0.55-2.2-1-2.45-1-0.24 0-0.75 1.91-1.13 4.25z"/>
		<path id="Path 24" class="s8" d="m266.18 321.25c-0.12 2.58-0.65 3.75-1.68 3.75-1.17 0-1.28-0.44-0.5-2 0.78-1.56 0.67-2-0.5-2-0.82 0-1.52 0.79-1.54 1.75-0.03 0.96 0.84 2.88 1.91 4.25 1.08 1.38 2.23 2.27 2.56 2 0.33-0.27 0.45-2.98 0.27-6q-0.33-5.47-0.52-1.75z"/>
		<path id="Path 25" class="s9" d="m267.38 327.5c0 6.6 0.17 9.07 0.36 5.5 0.2-3.57 0.19-8.98 0-12-0.2-3.02-0.36-0.1-0.36 6.5z"/>
		<path id="Path 26" class="s3" d="m342.37 321.5c0 5.5 0.17 7.52 0.37 4.5 0.2-3.02 0.2-7.52-0.01-10-0.2-2.48-0.37 0-0.36 5.5z"/>
		<path id="Path 27" class="s7" d="m339.5 312.67c-0.46 0.36-0.77 2.95-0.68 5.75 0.11 3.6-0.13 4.64-0.82 3.58-0.66-1.02-0.97 2.29-0.98 10.25l-0.02 11.75c4.86 0 5-0.3 5-5.5 0-3.02 0.34-5.5 0.75-5.49 0.41 0 2.77 2.47 5.25 5.49 3.46 4.22 5.13 5.49 7.25 5.49 1.51 0.01 2.76-0.1 2.76-0.24 0.01-0.14-2.01-2.5-4.49-5.25-2.48-2.75-4.49-5.45-4.47-6 0.02-0.55 1.82-3.14 3.99-5.75 3.9-4.68 3.92-4.75 1.46-4.75-1.77 0-3.75 1.47-6.75 5-2.34 2.75-4.59 5-5 5-0.41 0-0.75-4.5-0.75-10 0-5.5-0.38-10-0.83-10-0.46 0-1.21 0.3-1.67 0.67z"/>
		<path id="Path 28" class="s10" d="m336.37 322c0 5.77 0.17 8.02 0.37 5 0.2-3.02 0.2-7.75 0-10.5-0.2-2.75-0.37-0.27-0.37 5.5z"/>
		<path id="Path 29" class="s11" d="m262 316.5c0 3.33 0.39 4.5 1.5 4.5 1.17 0 1.28 0.44 0.5 2-0.73 1.47-0.67 2 0.25 2.01 0.76 0.01 1.54-2.14 2-5.5 0.41-3.03 0.52-5.96 0.25-6.51-0.27-0.55-1.4-1-2.5-1-1.7 0-2 0.67-2 4.5z"/>
		<path id="Path 30" class="s12" d="m260.34 319c0 4.13 0.17 5.93 0.39 4 0.21-1.93 0.21-5.3 0-7.5-0.22-2.2-0.39-0.63-0.39 3.5z"/>
		<path id="Path 31" class="s8" d="m337.5 311.67c-0.46 0.36-0.75 2.5-0.65 4.75 0.1 2.24 0.62 4.75 1.15 5.58 0.7 1.08 0.97 0.19 0.98-3.25 0.01-2.61 0.19-5.43 0.4-6.25 0.21-0.83 0.06-1.5-0.33-1.5-0.4 0-1.09 0.3-1.55 0.67z"/>
		<path id="Path 32" class="s13" d="m261.37 312.36c-0.31 0.74-0.41 4.23-0.21 7.75l0.37 6.39c0.75-12.02 0.85-15.5 0.7-15.5-0.16 0-0.54 0.61-0.86 1.36z"/>
		<path id="Path 33" class="s14" d="m237.37 312.12c-1.73 0.51-3.88 1.93-4.79 3.16-0.91 1.22-1.66 4.02-1.67 6.22 0 2.2 0.35 4.38 0.79 4.84 0.44 0.46 2.6 0.53 4.8 0.16 3.22-0.53 3.66-0.84 2.25-1.58-0.96-0.51-2.2-1.82-2.75-2.92-0.76-1.51-0.58-2.49 0.75-4.02 0.96-1.11 2.87-2.25 4.25-2.55 1.37-0.29 4.3 0.11 6.5 0.89 2.23 0.79 4.66 1.08 5.5 0.64 0.82-0.43 1.23-1.39 0.9-2.12-0.33-0.74-2.69-1.9-5.25-2.59-2.56-0.69-5.44-1.21-6.4-1.16-0.96 0.05-3.16 0.51-4.88 1.03z"/>
		<path id="Path 34" class="s14" d="m204 312.09c-1.93 0.5-4.85 2.3-6.5 3.99-2.94 3.01-2.96 3.1-1 4.45 1.8 1.24 2.25 1.1 4.5-1.43 1.38-1.55 3.85-3.13 5.5-3.53 1.88-0.44 4.4-0.16 6.74 0.76 3.04 1.19 4.08 2.35 5.5 6.09 1.47 3.88 2.08 4.53 3.76 3.98 1.1-0.36 2.11-0.71 2.24-0.77 0.14-0.07-0.26-1.7-0.89-3.63-0.62-1.92-2.08-4.55-3.24-5.84-1.16-1.29-2.79-2.7-3.61-3.14-0.82-0.43-3.3-1.03-5.5-1.32-2.2-0.3-5.57-0.12-7.5 0.39z"/>
		<path id="Path 35" class="s14" d="m170.5 312.47c-2.2 0.81-4.58 2.27-5.29 3.25-0.72 0.98-1.17 3.58-1 5.78 0.27 3.75 0.49 4 3.4 4 2.96 0 3.04-0.11 1.75-2.25-1.16-1.92-1.14-2.62 0.14-4.75 1.28-2.13 2.23-2.5 6.5-2.5 2.75 0 6.13 0.45 7.5 1 2.12 0.85 2.58 0.7 3-1 0.36-1.45-0.18-2.27-2-3-1.38-0.55-4.19-1.23-6.25-1.5-2.1-0.28-5.51 0.14-7.75 0.97z"/>
		<path id="Path 36" class="s15" d="m92.5 201.93c-5.5 0.31-10.67 0.99-11.5 1.5-0.83 0.51-3.97 3.21-6.99 6-3.02 2.79-8.3 7.77-11.72 11.07-6.06 5.84-6.23 6.14-6.15 11 0.05 2.75 0.26 4.32 0.47 3.5 0.2-0.82 1.28-1.84 2.38-2.25 1.11-0.41 2.42-1.76 2.92-3 0.5-1.24 3.31-4.54 6.25-7.33 2.94-2.79 7.96-7.16 11.16-9.69l5.82-4.62c37.56-1.41 43.06-1.95 44.05-3.01 0.96-1.02 0.98-1.22 0.06-0.75-0.69 0.36-1.25 0.2-1.25-0.35 0-0.55 1.01-1.42 2.25-1.94 1.52-0.63-2.59-0.9-12.75-0.82-8.25 0.07-19.5 0.38-25 0.69z"/>
		<path id="Path 37" class="s16" d="m128.5 202.67c-0.46 0.36-0.76 1.04-0.67 1.5 0.09 0.46 0.73 0.54 1.42 0.18q1.28-0.66 0.25 0.42c-0.55 0.58-2.13 1.26-3.5 1.51-2.24 0.4-2.19 0.46 0.5 0.55 1.94 0.06 4.59 1.47 7.5 3.96 2.47 2.12 5.29 4.16 6.25 4.53 1.2 0.47 2.07 0.05 2.75-1.32 0.85-1.71 0.2-2.73-4.5-7-3.03-2.75-6.32-5-7.33-5-1.01 0-2.21 0.3-2.67 0.67z"/>
		<path id="Path 38" class="s17" d="m119.5 208.59c1.1 0.18 4.09 0.46 6.65 0.62 2.56 0.16 4.48-0.05 4.25-0.46-0.22-0.41-3.21-0.69-6.65-0.61-3.44 0.07-5.35 0.28-4.25 0.45z"/>
		<path id="Path 39" class="s18" d="m129.58 208.75c-0.28 0.41 1.16 2.32 3.2 4.25l3.72 3.5c-5.06-5.43-6.23-7.34-5.85-7.75 0.38-0.41 0.41-0.75 0.07-0.75-0.34 0-0.85 0.34-1.14 0.75z"/>
		<path id="Path 40" class="s19" d="m91.5 209.71c1.1 0.23 3.13 0.23 4.5 0 1.38-0.24 0.47-0.44-2-0.44-2.47 0-3.6 0.2-2.5 0.44z"/>
		<path id="Path 41" class="s18" d="m101.64 209.67c-0.38 0.36-4.28 0.59-8.67 0.5-4.76-0.1-7.97 0.23-7.97 0.83 0 0.61 5.01 1.05 12.75 1.14 7.01 0.07 11.74 0.3 10.5 0.5-1.35 0.21-2.24 1.06-2.23 2.11 0.01 0.96-0.65 2.65-1.47 3.75-0.82 1.1-1.49 3.13-1.49 4.5 0 1.38 0.55 3.22 1.22 4.1 1.07 1.4 1.78 0.98 5.72-3.42 2.67-2.98 3.99-5.16 3.25-5.35-0.69-0.18-1.23-1.12-1.21-2.08 0.02-0.96 1.04-2.55 2.25-3.53 1.22-0.98 3.11-1.76 4.21-1.74 1.1 0.03 2.5 0.38 3.11 0.79 0.61 0.4 0.95 1.63 0.77 2.73-0.19 1.1-0.77 2.23-1.29 2.5-0.53 0.28-1.25 2.08-1.61 4-0.58 3.1-0.47 3.36 0.93 2.25 0.88-0.69 1.37-1.7 1.09-2.25-0.28-0.55 0.17-0.77 1-0.5q1.5 0.5 2-2c0.28-1.37 0.95-2.5 1.5-2.5 0.55 0 1.11-1.08 1.25-2.4 0.14-1.32 0.03-2.39-0.25-2.38-0.28 0.01-1.4-0.04-2.5-0.12-1.67-0.11-1.75-0.29-0.5-1.1 1.02-0.66-2.24-0.97-10.08-0.98-6.37-0.01-11.9 0.28-12.28 0.65z"/>
		<path id="Path 42" class="s20" d="m124 210c-1.21 0.78-1.07 0.97 0.75 0.98 1.24 0.01 4.61 1.93 7.5 4.27 2.89 2.34 5.56 4.7 5.94 5.25 0.39 0.55 0.5 1.22 0.26 1.5-0.24 0.28-1.23-0.29-2.19-1.25-0.97-0.97-2.17-1.42-2.67-1-0.51 0.42-0.62 0.19-0.25-0.5 0.36-0.69 0.21-1.47-0.34-1.75-0.55-0.28-1.22-0.05-1.5 0.5-0.28 0.55 0.11 1.56 0.85 2.25 1.1 1.01 1.11 1.49 0.07 2.5-0.7 0.69-2.1 1.24-3.1 1.23-1-0.01-3.06 1.22-4.58 2.75-1.52 1.52-2.42 3.15-2 3.6 0.42 0.46 0.31 0.75-0.24 0.63-0.55-0.11-1.45-0.16-2-0.11-0.55 0.05-0.1 1.01 1 2.15l2 2.06c7.3-7.41 9.21-9.9 8.96-10.31-0.25-0.41 0.1-1.06 0.79-1.43 0.69-0.37 2.37-0.71 3.75-0.75 1.7-0.05 2.38-0.55 2.13-1.57-0.21-0.82-0.64-2.4-0.96-3.5-0.47-1.59-0.3-1.8 0.86-1 1.07 0.74 1.25 0.67 0.71-0.25-0.41-0.69-1.19-1.03-1.74-0.75-0.55 0.28-2.17-1.1-3.6-3.07-1.44-1.96-2.9-3.3-3.25-2.99-0.36 0.32 0.7 2.04 2.34 3.82 2.29 2.48 2.06 2.36-1-0.5-2.19-2.05-4.66-3.73-5.49-3.73-0.83 0-2.17 0.44-3 0.97z"/>
		<path id="Path 43" class="s21" d="m77.38 217.68c-3.78 3.59-6.07 5.93-5.09 5.18 0.99-0.75 1.77-0.91 1.74-0.36-0.04 0.55 1.4-0.39 3.2-2.09 1.8-1.7 4.96-4.07 7.02-5.25 2.75-1.58 5.11-2.09 8.85-1.91 2.8 0.14 5.28 0.59 5.5 1 0.22 0.41 1.53 0.52 2.9 0.25 1.46-0.29 2.75 0.02 3.11 0.75 0.33 0.69 0.1 1.7-0.52 2.25-0.62 0.55-1.1 1.45-1.07 2 0.02 0.55 0.71 0.1 1.53-1 0.82-1.1 1.48-2.79 1.47-3.75-0.01-1.07 0.85-1.86 2.23-2.02 1.24-0.15-3.26-0.38-10-0.5-6.74-0.13-12.64-0.42-13.12-0.66-0.47-0.24-3.96 2.51-7.75 6.11z"/>
		<path id="Path 44" class="s21" d="m114.33 213c-1.1 1.1-1.66 2-1.24 2 0.42 0 1.39-0.73 2.14-1.62 1-1.17 2.31-1.45 4.82-1 2.44 0.44 3.01 0.33 1.95-0.37-0.83-0.54-2.44-0.99-3.59-0.99-1.14-0.01-2.98 0.88-4.08 1.98z"/>
		<path id="Path 45" class="s22" d="m141.29 213.3c-1.9 2.2-1.9 2.2 2.4 5.45 2.37 1.79 4.26 2.91 4.19 2.5-0.06-0.41-0.06-1.31 0-2 0.07-0.69 0.68-1.12 1.37-0.97 0.69 0.15 1.93 0.63 2.75 1.06 0.82 0.43 0.42-0.03-0.89-1.03-1.31-1-3.63-3.03-5.15-4.51l-2.77-2.71z"/>
		<path id="Path 46" class="s23" d="m117.08 214.25c-0.05 1.11 0.65 1.75 1.92 1.75 1.1 0 2-0.45 2-1 0-0.55-0.56-1.33-1.25-1.74q-1.24-0.73-0.5 0.5c0.41 0.68 0.3 1.24-0.25 1.24-0.55 0-1.19-0.56-1.42-1.25-0.23-0.69-0.46-0.46-0.5 0.5z"/>
		<path id="Path 47" class="s24" d="m127.09 213.95c-0.05 0.58 0.63 1.84 1.51 2.8 1.46 1.6 1.46 1.81 0 2.5-0.88 0.41-1.6 1.2-1.6 1.75 0 0.56 1.21 0.36 2.75-0.45 1.51-0.79 3.2-1.13 3.75-0.76 0.59 0.41 0.7 0.19 0.25-0.55-0.41-0.68-1.2-1.01-1.75-0.74-0.55 0.28-0.79-0.06-0.53-0.75 0.26-0.69-0.6-2.06-1.91-3.05-1.31-0.98-2.43-1.32-2.47-0.75z"/>
		<path id="Path 48" class="s25" d="m87.03 215.66c-0.8 1.01-1.03 1.51-0.5 1.12 0.53-0.4 1.76-0.29 2.72 0.25 0.96 0.53 1.53 1.42 1.25 1.97-0.3 0.59 0.12 0.7 1.04 0.25 1.2-0.59 1.26-0.97 0.29-1.75-0.68-0.55-1.71-1.6-2.28-2.34-0.86-1.1-1.32-1.01-2.52 0.5z"/>
		<path id="Path 49" class="s26" d="m137.24 215.54c1.39 1.57 1.49 2.24 0.5 3.36-0.99 1.11-0.98 1.26 0.01 0.75 0.72-0.38 1.44 0.09 1.71 1.1 0.25 0.96 1.39 2.65 2.53 3.75 1.6 1.54 2.06 1.66 2 0.5-0.07-1.33 0.09-1.33 1.48 0 1.39 1.34 1.53 1.28 1.29-0.63-0.14-1.17-0.71-1.93-1.26-1.7-0.55 0.23-2.24-0.5-3.75-1.63-1.51-1.12-2.52-2.38-2.24-2.79 0.28-0.41 1.15 0.15 1.92 1.25 0.77 1.1 1.67 1.66 1.99 1.25 0.32-0.41-1.33-2.19-3.67-3.96-2.34-1.76-3.47-2.32-2.51-1.25z"/>
		<path id="Path 50" class="s18" d="m74.94 220.47c-1.89 1.9-3.66 3.27-3.94 3.03-0.28-0.24-2.08 1.22-4 3.24-1.92 2.02-2.71 3.13-1.75 2.47 0.96-0.67 2.2-0.99 2.75-0.71 0.55 0.28 3.28-2.2 6.06-5.5 2.78-3.3 4.89-6 4.69-6-0.2 0-1.91 1.56-3.81 3.47z"/>
		<path id="Path 51" class="s27" d="m78.93 219.25c-1.42 1.24-2.99 2.95-3.5 3.8-0.51 0.85-0.08 0.62 0.97-0.5 1.04-1.13 2.84-2.82 4-3.77 1.15-0.94 1.87-1.73 1.6-1.74-0.28-0.02-1.66 0.98-3.07 2.21z"/>
		<path id="Path 52" class="s21" d="m92.61 217.98c0.69 1.15 0.5 1.32-0.86 0.75-1.05-0.44-1.55-0.33-1.25 0.27 0.28 0.55-0.2 1.56-1.04 2.25-0.98 0.79-1.53 2.83-1.5 5.5l0.04 4.25c4.62-5.04 6.21-7.62 6.52-9 0.37-1.64-0.02-3.01-1.12-4-1.45-1.29-1.56-1.3-0.79-0.02z"/>
		<path id="Path 53" class="s21" d="m97.17 218.21c-0.64 0.71-1.05 3.63-0.91 6.54 0.13 2.89 0.58 5.25 0.99 5.25 0.41 0 0.74-0.56 0.72-1.25-0.01-0.69 1-0.21 2.25 1.07 1.58 1.6 2.97 2.14 4.53 1.75 1.24-0.31 2.25-1.25 2.25-2.07 0-0.82-0.45-1.28-1-1-0.55 0.27-1.11-0.01-1.25-0.64-0.14-0.62-1.26-1.3-2.5-1.5-1.27-0.2-2.03 0.08-1.75 0.64 0.28 0.55 1.06 0.83 1.75 0.63 0.69-0.21 1.25 0.17 1.25 0.84 0 0.73-0.75 0.98-1.88 0.62-1.03-0.32-2.32-1.49-2.85-2.59-0.68-1.4-0.57-2.67 0.38-4.26 0.99-1.67 1.56-1.93 2.14-1 0.49 0.78 0.68 0.31 0.5-1.23-0.16-1.37-1-2.63-1.88-2.79-0.87-0.17-2.11 0.28-2.74 0.99z"/>
		<path id="Path 54" class="s21" d="m82.12 219.25c-0.61 0.69-0.77 1.66-0.36 2.16 0.41 0.5 0.29 0.63-0.26 0.28-0.55-0.35-2.13 0.55-3.5 2-1.38 1.45-2.05 2.38-1.5 2.07 0.55-0.31 1 0.02 1 0.74 0 0.72-0.34 1.13-0.75 0.9-0.41-0.22-0.76 0.16-0.78 0.85-0.02 0.79-0.48 0.64-1.25-0.4-0.87-1.18-1.72-1.4-2.97-0.75-0.96 0.49-1.75 1.58-1.75 2.4 0 0.82-0.34 1.45-0.75 1.38-0.41-0.06-1.31-0.06-2 0-0.69 0.07-1.03 0.57-0.75 1.12 0.28 0.55 0.95 0.78 1.5 0.5 0.55-0.28 1.01 0.06 1.02 0.75q0.02 1.22 0.88-0.25c0.48-0.82 1.38-1.16 1.99-0.75 0.61 0.41 2.12-0.08 3.36-1.1 1.24-1.02 2.92-2.22 3.75-2.67 0.94-0.52 0.75 0.07-0.5 1.58-1.58 1.9-1.63 2.15-0.25 1.17 0.99-0.69 3.27-1.01 5.25-0.73l3.5 0.5c0-7.91-0.48-9.3-2-10.25-1.1-0.69-1.7-1.59-1.33-2 0.36-0.41 0.41-0.75 0.11-0.75-0.31 0-1.05 0.56-1.66 1.25z"/>
		<path id="Path 55" class="s18" d="m112.75 222.53c-2.06 2.46-3.77 5.03-3.79 5.72-0.03 0.69 0.67 1.93 1.54 2.75 1.13 1.07 1.58 1.14 1.54 0.25-0.02-0.69 1.29-2.71 2.92-4.5 1.72-1.9 2.97-4.4 3-6 0.02-1.51-0.3-2.74-0.71-2.72-0.41 0.02-2.44 2.05-4.5 4.5z"/>
		<path id="Path 56" class="s28" d="m147.83 219.17c0.09 0.46-0.73 0.61-1.83 0.33-1.14-0.29-1.79-0.07-1.5 0.5 0.27 0.55 0.95 0.78 1.5 0.5 0.55-0.27 1.45 0.4 2 1.5 0.55 1.1 1.67 2 2.5 2 0.82 0 1.5 0.45 1.5 1 0 0.55 0.45 0.78 1 0.5 0.55-0.27 0.77-0.95 0.5-1.5-0.29-0.58 0.45-0.81 1.75-0.55 1.98 0.4 1.87 0.13-0.91-2.25-1.74-1.48-3.95-2.74-4.92-2.78-0.96-0.05-1.68 0.29-1.59 0.75z"/>
		<path id="Path 57" class="s29" d="m95.14 222c-0.15 2.8 0.47 4.1 3.09 6.5l3.27 3c-4.15-4.65-5.54-7.57-5.77-9.5l-0.41-3.5z"/>
		<path id="Path 58" class="s18" d="m99.15 222.15c-0.95 1.65-1.06 2.95-0.38 4.35 0.53 1.1 1.86 2.22 2.95 2.5 1.08 0.28 1.88 0.05 1.78-0.5-0.11-0.55-0.53-1.9-0.93-3-0.41-1.1-1.04-2.83-1.4-3.85-0.62-1.7-0.78-1.66-2.02 0.5z"/>
		<path id="Path 59" class="s20" d="m121.59 221c0.23 0.28-0.37 1.34-1.34 2.36-0.96 1.02-1.75 3.14-1.75 4.7v2.85c5.84-5.74 7.41-8.15 7.27-9.05-0.16-1-1.12-1.59-2.43-1.5-1.2 0.08-1.98 0.36-1.75 0.64z"/>
		<path id="Path 60" class="s17" d="m145 222.98c1.38 1.06 2.59 2.52 2.71 3.23 0.12 0.71 0.68 2.98 1.25 5.04 0.69 2.47 0.7 3.75 0.04 3.75-0.55 0-1.23-0.79-1.51-1.75-0.48-1.66-0.59-1.66-2.25 0.02-1.32 1.33-2.35 1.55-4.24 0.89-1.37-0.48-3.18-0.62-4-0.31-0.82 0.31-2.93 2.16-4.69 4.11-1.75 1.95-2.76 3.65-2.25 3.79 0.52 0.14 1.63-0.31 2.46-1 0.84-0.69 1.85-0.93 2.25-0.53 0.4 0.39 1.86 0.12 3.23-0.61 1.38-0.74 3.18-1.13 4-0.87 0.82 0.26 1.83-0.14 2.23-0.88 0.54-0.99 0.74-1.02 0.75-0.11 0.01 0.69 0.7 1.25 1.52 1.25 0.83 0 1.5 0.89 1.5 2 0 1.1 0.42 2.11 0.93 2.25 0.51 0.14 1.23 2.95 1.61 6.25 0.37 3.3 0.74 6.08 0.82 6.18 0.08 0.1 0.46-4.18 0.86-9.5 0.54-7.2 0.41-9.87-0.5-10.41-0.67-0.41-0.77-0.74-0.22-0.74 0.55 0 0.43-0.57-0.27-1.26-0.69-0.7-1.25-2.17-1.23-3.27 0.02-1.1-0.31-2.46-0.73-3.02-0.43-0.56 0.04-0.11 1.02 1 1.6 1.8 1.79 1.83 1.75 0.27-0.02-0.96-1.73-3.1-3.79-4.76-2.06-1.65-4.2-2.99-4.75-2.97-0.55 0.01 0.13 0.9 1.5 1.96z"/>
		<path id="Path 61" class="s18" d="m94.08 223.25c-0.04 0.96-1.2 2.76-2.56 4-1.37 1.24-2.5 2.7-2.52 3.25-0.02 0.55 0.54 1.79 1.23 2.76 0.7 0.97 2.4 1.99 3.77 2.27 1.38 0.28 2.17 0.17 1.76-0.26-0.4-0.42 0.05-1.37 1-2.1 1.61-1.23 1.59-1.29-0.26-0.75l-2 0.58c3.1-2.35 3.44-3.03 2.75-3.02-0.69 0.01-1.14-0.54-1-1.23 0.14-0.69-0.54-1.14-1.5-1-0.96 0.14-1.76-0.09-1.77-0.5-0.01-0.41 0.48-1.2 1.09-1.75 0.61-0.55 0.88-1.68 0.6-2.5-0.4-1.17-0.53-1.12-0.59 0.25z"/>
		<path id="Path 62" class="s26" d="m135.75 223.47c1 1.22 1 1.84 0 3.07-0.69 0.85-1.78 1.53-2.42 1.5-0.64-0.02-2.56 1.42-4.25 3.21-2.52 2.66-2.85 3.5-1.83 4.65 1.03 1.15 0.94 1.28-0.5 0.75-1.52-0.57-1.6-0.36-0.63 1.6 1.09 2.2 1.19 2.15 5.29-2.5 2.3-2.61 4.95-4.75 5.89-4.75 0.93 0 1.65-0.34 1.58-0.75-0.06-0.41-0.06-1.31 0-2 0.07-0.69 0.68-1.27 1.37-1.29 0.89-0.04 0.82 0.41-0.25 1.54-0.82 0.87-1.28 1.6-1 1.61 0.28 0.01 2.58 0.11 5.12 0.21 3.61 0.14 4.48-0.12 4-1.21-0.34-0.76-1.52-1.84-2.62-2.39-2-1.01-2-1.01-0.02 1.38 1.48 1.78 1.09 1.63-1.48-0.6-1.91-1.65-3.7-3.26-3.98-3.59-0.29-0.32-1.65-0.9-3.02-1.27-2.16-0.6-2.33-0.48-1.25 0.83z"/>
		<path id="Path 63" class="s30" d="m153.26 224.05c0.41 0.52 0.29 1.17-0.26 1.45-0.55 0.27-1 0.05-1-0.5 0-0.55-0.56-1.01-1.25-1.03-0.81-0.02-0.65 0.59 0.47 1.75 1.33 1.36 1.73 3.53 1.73 9.28 0 4.12 0.2 7.27 0.45 7 0.26-0.28 0.61-3.31 0.78-6.75 0.18-3.44 0.66-6.25 1.07-6.25 0.41 0 1.43 0.68 2.25 1.5 1.33 1.33 1.5 1.11 1.5-2 0-1.93-0.34-3.71-0.75-3.96-0.41-0.26-1.87-0.69-3.24-0.95-1.48-0.29-2.19-0.1-1.75 0.46z"/>
		<path id="Path 64" class="s25" d="m69.43 228.02c-1.61 1.66-2.71 3.02-2.43 3.02 0.27 0 2.07-1.37 4-3.04 1.92-1.67 3.02-3.03 2.43-3.02-0.58 0.01-2.38 1.38-4 3.04z"/>
		<path id="Path 65" class="s18" d="m116.56 227.07c-1.51 1.14-2.71 2.72-2.66 3.5 0.06 0.79 0.77 1.66 1.6 1.93 0.89 0.3 1.96-0.42 2.63-1.75 0.63-1.24 1.25-3.04 1.38-4 0.13-0.96 0.14-1.75 0.02-1.75-0.12 0-1.46 0.93-2.97 2.07z"/>
		<path id="Path 66" class="s19" d="m64.03 230.04c-1.91 1.64-2.31 2.85-2.08 6.25 0.16 2.32 0.63 5.56 1.05 7.21 0.42 1.65 0.82 2.21 0.88 1.25 0.07-0.96 0.57-1.75 1.12-1.75 0.55 0 0.89-1.31 0.75-2.91-0.14-1.6-0.59-2.72-1-2.5-0.41 0.23-0.75-0.04-0.75-0.59 0-0.55 0.45-1.22 1-1.5q1-0.5 0-2c-0.75-1.12-0.49-1.82 1-2.75 1.11-0.69 2.01-1.59 2-2 0-0.41-0.36-0.75-0.8-0.75-0.45 0-1.87 0.92-3.17 2.04z"/>
		<path id="Path 67" class="s18" d="m76.56 230.07c-1.51 1.14-2.71 2.49-2.66 3 0.06 0.51 1.9 0.93 4.1 0.93 3.08 0 4.97 0.8 8.25 3.47 2.34 1.91 4.59 3.26 5 3 0.41-0.26 0.75-1.15 0.75-1.97 0-0.82-1.13-2.85-2.5-4.5-1.62-1.95-3.73-3.18-6-3.5-1.98-0.28-4.26 0.04-5.25 0.73-1.51 1.07-1.5 0.93 0.12-1 1.03-1.23 1.67-2.23 1.41-2.23-0.26 0-1.71 0.93-3.22 2.07z"/>
		<path id="Path 68" class="s26" d="m150.1 230.94c-0.05 1.13 0.35 2.28 0.9 2.56 0.55 0.28 1.05-0.37 1.1-1.44 0.06-1.07-0.35-2.22-0.9-2.56-0.55-0.34-1.04 0.31-1.1 1.44z"/>
		<path id="Path 69" class="s31" d="m154.19 232.5c-0.13 2.43 0.19 3.37 1.06 3.06 0.69-0.24 1.82 0.1 2.52 0.75 1 0.94 1.26 0.62 1.25-1.56-0.01-1.51-0.7-3.43-1.52-4.25-0.82-0.82-1.86-1.5-2.31-1.5-0.44 0-0.89 1.57-1 3.5z"/>
		<path id="Path 70" class="s32" d="m159.21 233c-0.14 3.59-0.43 4.26-1.44 3.31-0.7-0.65-1.83-0.99-2.52-0.75-0.69 0.24-1.25 1.34-1.25 2.44 0 1.14 0.97 2.38 2.25 2.9 1.24 0.49 2.6 0.6 3.02 0.25 0.43-0.36 0.62-3.35 0.44-6.65-0.27-4.83-0.37-5.12-0.5-1.5z"/>
		<path id="Path 71" class="s20" d="m65.24 231.25c-0.54 0.69-0.82 2.15-0.62 3.25 0.2 1.1 0.66 2.22 1.01 2.5 0.35 0.28 0.42-0.18 0.15-1-0.27-0.82-0.16-2.51 0.24-3.75 0.4-1.24 0.62-2.25 0.47-2.25-0.15 0-0.71 0.56-1.25 1.25z"/>
		<path id="Path 72" class="s21" d="m96.4 231.52c-1.85 1.45-1.85 1.47 0.1 0.89 1.66-0.5 1.58-0.25-0.5 1.43-1.38 1.11-2.13 2.39-1.67 2.84 0.46 0.45 1.36 0.05 2-0.89 0.64-0.94 1.73-1.73 2.42-1.75 0.69-0.02 1.47-0.49 1.75-1.04 0.28-0.55-0.11-1.44-0.85-1.98-0.92-0.68-1.94-0.52-3.25 0.5z"/>
		<path id="Path 73" class="s16" d="m59.29 232.42c-1.12 0.55-2.32 1.92-2.65 3.04-0.34 1.12-0.63 3.39-0.64 5.04-0.03 2.38 0.23 2.75 1.23 1.81 0.7-0.65 1.72-0.98 2.27-0.72 0.55 0.25 1.36-1.88 1.8-4.76 0.44-2.86 0.62-5.26 0.41-5.31-0.21-0.05-1.3 0.35-2.42 0.9z"/>
		<path id="Path 74" class="s18" d="m67.78 233.11c-0.34 0.76-0.77 2.58-0.95 4.02-0.18 1.45-0.11 2.48 0.17 2.28 0.28-0.19 1.29 0.08 2.25 0.62 1.36 0.76 1.64 0.64 1.25-0.53q-0.5-1.5 1.5-1.5c1.1 0 2.22 0.45 2.5 1 0.28 0.55 1.51 0.89 2.74 0.75 1.43-0.16 2.24 0.29 2.25 1.25 0.01 0.95 0.98 1.5 2.67 1.5 1.46 0 2.59 0.38 2.5 0.85-0.09 0.47 1.08 1.03 2.59 1.25 2.44 0.36 2.67 0.16 2-1.75-0.41-1.18-2.33-3.48-4.26-5.11-3.03-2.55-4.06-2.87-7.5-2.33-2.2 0.34-4.84 0.72-5.88 0.85-1.21 0.16-2.01-0.48-2.24-1.76-0.2-1.1-0.5-2.18-0.67-2.39-0.17-0.22-0.58 0.23-0.92 1z"/>
		<path id="Path 75" class="s33" d="m103.45 233.52c-0.29 0.95-1.01 1.21-2.02 0.73-1.14-0.55-1.69-0.14-2 1.5-0.28 1.44-1.15 2.25-2.43 2.25-1.1 0-2.45 0.9-3 2-0.61 1.23-1.48 1.71-2.24 1.25q-1.23-0.74-0.5 0.5c0.41 0.69 0.29 1.47-0.26 1.75-0.55 0.27-0.67 1.29-0.27 2.25 0.44 1.06 0.34 1.5-0.25 1.11-0.58-0.37-0.88 0.55-0.73 2.25 0.14 1.59 0.47 3.34 0.75 3.89 0.28 0.55-0.06 1.01-0.75 1.02-0.77 0-0.87 0.29-0.25 0.75 0.55 0.4 1.9 1.82 3 3.15 1.1 1.33 1.44 2.12 0.75 1.75q-1.23-0.64-0.75 0.83c0.28 0.82 0.95 1.5 1.5 1.5 0.55 0 1.22 0.9 1.5 2 0.29 1.17 1.33 2 2.5 2 1.1 0 2 0.34 2 0.75 0 0.41 2.72 0.75 6.04 0.75 3.31 0 6.35-0.5 6.74-1.1 0.4-0.61 1.73-1.62 2.97-2.25 1.24-0.63 2.81-0.81 3.49-0.4q1.23 0.74 0.5-0.5c-0.41-0.69-0.29-2.15 0.26-3.25 0.58-1.15 1.53-1.72 2.25-1.34 0.69 0.37 0.92 0.25 0.51-0.25-0.41-0.5-0.3-1.47 0.25-2.16 0.54-0.69 0.94-1.59 0.87-2-0.06-0.41-0.06-1.76 0-3 0.07-1.24 0.57-2.03 1.12-1.75 0.55 0.27 0.89-0.1 0.75-0.83-0.14-0.74-0.81-2.09-1.5-3-0.69-0.92-1.03-2.12-0.75-2.67 0.28-0.55-0.18-1-1-1-0.83 0-1.94-0.79-2.47-1.75-0.54-0.96-0.76-2.09-0.5-2.5 0.26-0.41 0.25-0.53-0.03-0.25-0.28 0.27-1.29-0.2-2.25-1.06-0.96-0.86-3.42-2.1-5.46-2.75-2.29-0.74-3.6-0.81-3.42-0.19 0.16 0.55 1.26 1.11 2.46 1.25 1.19 0.14 2.17 0.7 2.17 1.25 0 0.55 0.45 0.77 1 0.5 0.55-0.28 1.78 0.74 2.74 2.25 0.95 1.51 2.31 3.2 3.01 3.75 0.7 0.55 1.52 2.12 1.82 3.5 0.3 1.37 0.68 3.18 0.84 4 0.17 0.82-0.17 2.62-0.74 4-0.58 1.37-2.08 3.96-3.36 5.75-1.27 1.79-3.55 3.73-5.06 4.31-1.51 0.58-4.1 1.18-5.75 1.33-1.65 0.15-4.72-0.66-6.83-1.81-2.46-1.33-4.52-3.52-5.74-6.08-1.05-2.2-1.91-5.69-1.92-7.75 0-2.06 0.5-4.76 1.12-6 0.61-1.24 2.33-3.38 3.8-4.75 1.48-1.38 4.23-3.21 6.13-4.08 2.85-1.3 3.13-1.69 1.64-2.23-1.16-0.42-1.97-0.13-2.25 0.83z"/>
		<path id="Path 76" class="s24" d="m119.34 234.03c0.1 1.16 0.89 1.97 1.91 1.97 0.96 0 1.76-0.34 1.76-0.76 0.01-0.42-0.84-1.3-1.9-1.97-1.66-1.04-1.9-0.94-1.77 0.76z"/>
		<path id="Path 77" class="s34" d="m97.23 235.5c0.15 1.1 0.72 2.28 1.27 2.63 0.55 0.34 2.35-0.06 4-0.9q3-1.52 6.75-0.87c2.06 0.35 3.76 0.3 3.77-0.11 0.02-0.41-1.43-1.09-3.22-1.51-2-0.47-4.49-0.28-6.53 0.5-1.82 0.69-3.31 1.71-3.32 2.26-0.01 0.55-0.69-0.12-1.5-1.5-1.24-2.09-1.44-2.17-1.22-0.5z"/>
		<path id="Path 78" class="s20" d="m125.67 235.25c-1.05 0.74-1.55 1.96-1.22 3 0.3 0.96 1 1.75 1.55 1.75 0.55 0 0.78-0.68 0.5-1.5-0.28-0.82-0.16-1.5 0.25-1.5 0.41 0 0.79-0.68 0.83-1.5 0.05-0.82 0.04-1.5-0.02-1.5-0.06 0-0.91 0.56-1.89 1.25z"/>
		<path id="Path 79" class="s35" d="m106 237c0 0.55 1.24 0.99 2.75 0.98 2.14-0.01 2.42-0.22 1.25-0.98-0.83-0.53-2.06-0.98-2.75-0.98-0.69-0.01-1.25 0.43-1.25 0.98z"/>
		<path id="Path 80" class="s17" d="m160.27 249.5l0.1 14c0.88-17.82 0.84-24.13 0.47-25.5-0.37-1.38-0.62 3.8-0.57 11.5z"/>
		<path id="Path 81" class="s36" d="m162.29 240.5c0 2.83 0.19 3.7 0.42 2 0.23-1.65 0.23-3.9-0.01-5-0.24-1.1-0.42 0.25-0.41 3z"/>
		<path id="Path 82" class="s20" d="m67.22 239.25c-0.9 0.96-0.89 1.59 0.05 2.69 0.98 1.15 0.97 1.3-0.02 0.75-0.69-0.38-1.25-0.24-1.25 0.31 0 0.55 0.11 1.34 0.25 1.75 0.14 0.41 0.7 0.59 1.25 0.4 0.55-0.19 2.19-0.42 3.65-0.5 1.53-0.09 2.37 0.26 2 0.83-0.39 0.59 0.04 0.69 1.1 0.25 0.99-0.41 1.75-0.29 1.75 0.27 0 0.55 0.34 0.79 0.75 0.54 0.41-0.25 1.88 0.3 3.25 1.22 1.38 0.92 3.85 1.79 5.5 1.93 2.99 0.26 2.98 0.24-2-4.34-4.46-4.1-5.37-4.53-8.5-4.02-2.04 0.33-4.23 0.07-5.24-0.63-0.95-0.66-1.44-1.54-1.08-1.95 0.36-0.41 0.44-0.75 0.19-0.75-0.26 0-1 0.56-1.65 1.25z"/>
		<path id="Path 83" class="s34" d="m103.41 238.77c-0.38 0.42 1.28 0.61 3.7 0.42 3.29-0.26 5.14 0.19 7.39 1.8l3 2.16c-4.74-4.44-6.59-5.15-9.45-5.15-2.17 0-4.26 0.35-4.64 0.77z"/>
		<path id="Path 84" class="s34" d="m94.99 242.25c-1.09 1.79-2 3.7-2.01 4.25-0.02 0.55 0.12 0.78 0.31 0.5 0.19-0.28 1.28-2.19 2.41-4.25 1.14-2.06 1.89-3.75 1.67-3.75-0.22 0-1.29 1.46-2.38 3.25z"/>
		<path id="Path 85" class="s37" d="m103.04 240.22c-1.35 0.6-2.36 1.47-2.25 1.93 0.12 0.47 1.22 0.23 2.46-0.54 1.24-0.76 3.6-1.6 5.25-1.85l3-0.46c-4.65-0.13-7.11 0.32-8.46 0.92z"/>
		<path id="Path 86" class="s4" d="m55.37 250.5c0.01 6.05 0.17 8.3 0.37 5 0.2-3.3 0.2-8.25 0-11-0.21-2.75-0.37-0.05-0.37 6z"/>
		<path id="Path 87" class="s38" d="m99.5 240.85c0.28 0.63-0.2 1.71-1.04 2.4-0.85 0.69-1.53 1.81-1.5 2.5 0.02 0.69-0.3 1.07-0.71 0.85-0.41-0.22-0.56 1.46-0.32 3.75l0.44 4.15c1.26-7.75 2.3-10.79 3.13-11.75 0.93-1.09 1.12-2 0.5-2.4-0.55-0.36-0.78-0.14-0.5 0.5z"/>
		<path id="Path 88" class="s35" d="m103.5 241.5c-1.1 0.79-2.22 1.25-2.5 1.02-0.28-0.23-1.29 1.13-2.25 3.03-0.96 1.9-1.77 4.46-1.79 5.7-0.03 1.24 0.53 2.77 1.25 3.42 1.04 0.94 1.22 0.26 0.92-3.5-0.33-4.16-0.06-4.92 2.5-6.95 2-1.6 4.16-2.28 7.12-2.25 3.71 0.03 4.44 0.41 5.75 3.03 0.83 1.65 1.5 4.13 1.5 5.5 0 1.38-0.56 3.64-1.25 5.04-0.72 1.45-2.63 2.94-4.5 3.5-2.44 0.72-4 0.59-6.25-0.54-1.65-0.82-3.56-1.35-4.25-1.16-0.69 0.19 0.21 1.09 2 2 1.79 0.91 4.71 1.67 6.5 1.69 1.79 0.02 4.19-0.77 5.34-1.75 1.15-0.98 2.66-2.9 3.35-4.28 0.73-1.45 1.01-3.98 0.67-6-0.33-1.93-1.5-4.74-2.6-6.25-1.59-2.17-2.8-2.74-5.76-2.72-2.06 0.02-4.65 0.68-5.75 1.47z"/>
		<path id="Path 89" class="s39" d="m131.25 241.37c-1.24 0.62-2.26 1.47-2.25 1.88 0 0.41 0.56 0.74 1.25 0.72 0.69-0.02 2.02-0.58 2.96-1.25 0.94-0.67 1.73-1.56 1.75-1.97 0.02-0.41-0.3-0.69-0.71-0.63-0.41 0.07-1.76 0.63-3 1.25z"/>
		<path id="Path 90" class="s40" d="m153.96 243.02c0.04 2.64 0.36 2.95 2.79 2.73 2.09-0.19 2.83-0.85 3.1-2.75 0.19-1.38-0.04-2.18-0.5-1.8-0.47 0.39-1.88 0.29-3.14-0.22-2.08-0.85-2.28-0.66-2.25 2.04z"/>
		<path id="Path 91" class="s22" d="m56.85 242.28c-0.69 0.62-1.12 2.27-0.97 3.67 0.15 1.4 0.47 1.99 0.7 1.3 0.23-0.69 1.32-1.25 2.42-1.25 1.31 0 1.98-0.65 1.95-1.89-0.02-1.04-0.67-2.13-1.44-2.42-0.78-0.3-1.97-0.03-2.66 0.59z"/>
		<path id="Path 92" class="s17" d="m62.2 252.5c-0.04 11.26 0.04 11.75 1.27 8 0.73-2.2 1.42-3.55 1.54-3 0.13 0.55 0.17 1.34 0.11 1.75-0.07 0.41 0.67 0.56 1.63 0.33 0.96-0.24 1.97-0.51 2.25-0.62 0.28-0.11 1.96-0.26 3.75-0.33 1.79-0.07 3.25 0.21 3.25 0.62 0 0.41 0.9 0.64 2 0.5 1.1-0.14 1.84-0.7 1.65-1.25-0.2-0.55-1.1-0.89-2.01-0.75-0.9 0.14-1.64-0.2-1.64-0.75 0-0.55 0.67-1.22 1.5-1.5 1.05-0.35 1.28-1.13 0.75-2.63-0.41-1.17-1.33-2.63-2.04-3.25-0.99-0.85-1.29-0.76-1.27 0.38 0.03 1.33-0.08 1.33-0.94 0-0.53-0.82-1.03-1.11-1.09-0.63-0.07 0.48-0.76 0.37-1.52-0.25-0.95-0.76-1.87-0.8-2.89-0.12-0.83 0.55-1.71 0.66-1.96 0.25-0.26-0.41-0.72-1.88-1.03-3.25-0.3-1.38-0.78-2.72-1.06-3-0.28-0.28-0.55 0.4-0.6 1.5-0.05 1.29-0.36 0.94-0.85-1-0.48-1.89-0.78 1.45-0.8 9z"/>
		<path id="Path 93" class="s41" d="m137.27 242.13c0.4 0.48-0.06 1.04-1.02 1.25-0.96 0.22-0.29 0.44 1.5 0.5 1.82 0.07 3.41-0.43 3.62-1.13 0.23-0.76-0.65-1.3-2.22-1.37-1.43-0.07-2.28 0.26-1.88 0.75z"/>
		<path id="Path 94" class="s39" d="m141.47 242.06c-0.26 0.52 0.8 0.94 2.36 0.94 1.56 0 2.8-0.21 2.75-0.48-0.04-0.26-1.1-0.68-2.36-0.94-1.25-0.25-2.48-0.03-2.75 0.48z"/>
		<path id="Path 95" class="s41" d="m145.94 242.73c-0.74 0.24-1.25 1.07-1.14 1.85 0.11 0.78-0.36 1.65-1.05 1.92-1 0.4-1 0.6 0 1 0.69 0.28 1.25 1.63 1.25 3 0 2.17-0.27 2.37-2 1.5-1.1-0.55-2.45-1-3-1-0.55 0-0.44 0.61 0.25 1.36 0.69 0.75 2.15 1.29 3.25 1.19 1.1-0.09 2.64 0.31 3.41 0.89 1.18 0.88 1.23 0.72 0.29-0.94-0.83-1.49-0.82-2.32 0.04-3.25 0.64-0.69 1.63-1.25 2.21-1.26 0.58-0.01 1.04-1.33 1.03-2.93-0.01-1.82-0.61-3.08-1.61-3.34-0.87-0.23-2.19-0.23-2.93 0.01z"/>
		<path id="Path 96" class="s42" d="m161.39 254.5c0 7.15 0.16 9.85 0.35 6 0.19-3.85 0.19-9.7 0-13-0.2-3.3-0.35-0.15-0.35 7z"/>
		<path id="Path 97" class="s15" d="m102.5 245.45c-1.32 1.35-2.44 3.72-2.48 5.25-0.04 1.67 0.85 3.7 2.2 5.03 1.4 1.37 3.54 2.24 5.53 2.25 1.94 0.01 4.06-0.79 5.25-1.98 1.17-1.17 2-3.34 2.01-5.25 0-1.79-0.67-4.26-1.5-5.5-1.09-1.63-2.49-2.25-5.06-2.25-2.44 0-4.29 0.76-5.95 2.45z"/>
		<path id="Path 98" class="s19" d="m152.27 247c0 2.47 0.2 3.38 0.44 2 0.23-1.38 0.23-3.4 0-4.5-0.24-1.1-0.44 0.03-0.44 2.5z"/>
		<path id="Path 99" class="s26" d="m69.33 245.5c0.18 0.55 1.75 1.11 3.5 1.25 1.74 0.14 3.17-0.2 3.17-0.75 0-0.56-0.76-0.68-1.75-0.27-1.06 0.44-1.49 0.34-1.1-0.25 0.37-0.55-0.4-0.98-1.75-0.98-1.32 0-2.25 0.45-2.07 1z"/>
		<path id="Path 100" class="s27" d="m130.5 245.71c1.1 0.23 3.13 0.23 4.5 0 1.38-0.24 0.47-0.44-2-0.44-2.47 0-3.6 0.2-2.5 0.44z"/>
		<path id="Path 101" class="s43" d="m156.75 245.73c-1.99 0.2-2.75 0.82-2.75 2.27 0 1.1 0.45 2 1 2 0.55 0 0.99-0.56 0.98-1.25-0.01-0.69 0.63-0.35 1.42 0.75 1.39 1.94 1.45 1.92 1.93-0.8 0.27-1.53 0.42-2.89 0.33-3.02-0.09-0.12-1.4-0.1-2.91 0.05z"/>
		<path id="Path 102" class="s44" d="m162.38 256c0 6.32 0.16 8.8 0.36 5.5 0.2-3.3 0.2-8.47 0-11.5-0.2-3.03-0.36-0.32-0.36 6z"/>
		<path id="Path 103" class="s28" d="m56.58 247.5c-0.32 0.82-0.58 2.63-0.58 4 0 2.24 0.16 2.35 1.57 1 0.87-0.82 1.99-1.5 2.5-1.5 0.51 0 0.93-1.13 0.93-2.5 0-1.8-0.54-2.5-1.92-2.5-1.05 0-2.17 0.68-2.5 1.5z"/>
		<path id="Path 104" class="s31" d="m61.3 251c0 3.03 0.19 4.15 0.42 2.5 0.23-1.65 0.23-4.13 0-5.5-0.23-1.38-0.42-0.03-0.42 3z"/>
		<path id="Path 105" class="s24" d="m85.51 247.25c0.23 0.69 1.11 1.59 1.95 2 1.18 0.58 1.42 0.29 1.04-1.25-0.28-1.1-1.15-2-1.95-2-0.8 0-1.27 0.56-1.04 1.25z"/>
		<path id="Path 106" class="s45" d="m124.92 246.25c-0.04 0.14-0.21 0.93-0.37 1.75-0.18 0.85 0.51 1.61 1.57 1.75 1.39 0.18 1.79-0.28 1.54-1.75-0.19-1.1-0.87-2-1.5-2-0.64 0-1.19 0.11-1.24 0.25z"/>
		<path id="Path 107" class="s39" d="m129.22 247.7c0.15 0.72 0.5 1.29 0.78 1.27 0.28-0.02 1.4-0.7 2.5-1.52 1.93-1.44 1.9-1.49-0.78-1.27-1.68 0.14-2.68 0.74-2.5 1.52z"/>
		<path id="Path 108" class="s41" d="m131.87 247.91l-2.37 1.91c6.2-0.38 9.01-0.57 10.25-0.66 1.26-0.09 2.25-0.82 2.25-1.66 0-1.08-1.1-1.5-3.88-1.5-2.31 0-4.83 0.77-6.25 1.91z"/>
		<path id="Path 109" class="s26" d="m71.4 249c0.33 0.55 1.05 0.78 1.6 0.5 0.55-0.28 1.19 0.06 1.42 0.75q0.41 1.19 0.46-0.25c0.03-1.33 0.21-1.33 1.62 0 0.87 0.82 1.57 2.06 1.54 2.75-0.02 0.69 0.97 1.47 2.21 1.74 1.24 0.26 3.04 0.49 4 0.5 0.96 0 1.73-0.33 1.71-0.74-0.02-0.41-1.93-1.97-4.25-3.47-2.38-1.53-5.67-2.73-7.56-2.75-1.98-0.02-3.11 0.38-2.75 0.97z"/>
		<path id="Path 110" class="s46" d="m155.05 249.48c-0.69 0.7-1.66 3.92-2.15 7.15-0.5 3.23-0.88 6.32-0.84 6.87 0.05 0.55 0.47 0.1 0.94-1 0.47-1.1 0.89-3.24 0.93-4.75 0.06-2.35 0.37-2.64 2.14-2 1.41 0.51 2.37 0.27 2.99-0.75 0.5-0.82 0.91-2.62 0.91-4 0-1.9-0.21-2.14-0.87-1-0.76 1.31-0.99 1.29-1.84-0.15-0.79-1.33-1.21-1.4-2.21-0.37z"/>
		<path id="Path 111" class="s47" d="m147.55 250c-0.3 0.55 0.13 2.13 0.95 3.5 0.82 1.38 1.84 2.52 2.25 2.54 0.41 0.03 0.21-0.53-0.45-1.25-0.66-0.71-1.04-2.3-0.83-3.54 0.2-1.24-0.03-2.25-0.51-2.25-0.47 0-1.11 0.45-1.41 1z"/>
		<path id="Path 112" class="s30" d="m57.5 252.57c-0.94 0.9-1.61 3.04-1.57 5 0.06 3.11 0.3 3.38 2.57 2.93 2.06-0.41 2.51-0.1 2.58 1.75q0.08 2.21 0.62 0.75c0.3-0.82 0.29-3.86-0.02-6.75-0.31-2.89-1.01-5.25-1.55-5.25-0.54 0-1.73 0.71-2.63 1.57z"/>
		<path id="Path 113" class="s48" d="m135.17 252.73c0.92 0.97 3.34 1.9 5.38 2.06 2.35 0.18 3.47-0.09 3.07-0.75-0.34-0.57-1.07-0.81-1.62-0.54-0.55 0.28-1.11 0.03-1.25-0.54-0.14-0.57-1.82-1.25-3.75-1.52-3.32-0.46-3.41-0.39-1.83 1.29z"/>
		<path id="Path 114" class="s48" d="m147.03 253c0.63 1.38 0.88 3.06 0.56 3.75-0.43 0.9-1.15 0.97-2.59 0.25-1.1-0.55-3.35-1-5-1-1.65 0-3.33 0.56-3.74 1.25-0.55 0.92-0.35 0.99 0.74 0.25 1.09-0.74 1.29-0.67 0.74 0.25-0.41 0.69-1.42 1.02-2.24 0.75-0.83-0.28-1.39-1.45-1.25-2.64 0.14-1.18-0.31-2.3-1-2.5q-1.26-0.37-0.52 1.39c0.52 1.24 0.37 1.53-0.5 1-0.68-0.41-1.24-0.41-1.25 0-0.01 0.41 0.56 1.6 1.25 2.63 1.1 1.63 2.1 1.8 7.52 1.25 5.17-0.52 6.25-0.37 6.25 0.87 0 0.82-0.68 1.73-1.5 2-0.82 0.27-2.06 0.05-2.75-0.5-0.69-0.55-2.87-0.89-4.86-0.75-2.07 0.14-4.36-0.39-5.39-1.25-1.67-1.39-1.75-1.32-1.08 1 0.51 1.8 0.44 2.08-0.27 1-0.67-1.03-1.56-1.24-2.81-0.67-1.64 0.75-1.4 1.22 2.16 4.28 2.81 2.42 4.96 3.43 7.25 3.42 2.59-0.02 3.25 0.37 3.25 1.97 0 1.1 0.45 1.77 1 1.5q1-0.5 0 1.5c-0.55 1.1-1.45 2.23-2 2.5-0.55 0.27-1.01 0.16-1.02-0.25-0.01-0.41 0.53-1.31 1.2-2 0.96-0.99 0.86-1.25-0.48-1.25-0.94 0-1.7-0.45-1.7-1 0-0.55-0.68-1-1.5-1-0.82 0-3.61-1.69-6.19-3.75-2.91-2.33-4.43-3.09-4-2 0.54 1.38 0.32 1.6-1.06 1.05-1.62-0.66-1.64-0.53-0.2 1.75 0.86 1.35 2.21 4.44 3 6.87 0.88 2.67 2.14 4.55 3.2 4.75 0.97 0.18 1.75 1.22 1.75 2.33 0 1.1 0.34 2.01 0.75 2.03 0.41 0.01 4.22-3.48 8.46-7.75 6.35-6.41 7.74-8.4 7.93-11.28 0.13-1.93 0.32-5.75 0.41-8.5 0.1-2.75-0.02-4.32-0.26-3.5-0.36 1.22-0.72 1.13-1.92-0.5-1.39-1.88-1.41-1.85-0.34 0.5z"/>
		<path id="Path 115" class="s41" d="m130.62 253.75c-1.56 1.64-1.56 1.85 0.05 3.25 0.97 0.85 1.41 0.96 1.02 0.25-0.38-0.69-0.27-2.15 0.24-3.25 0.51-1.1 0.81-2 0.65-2-0.16 0-1.04 0.79-1.96 1.75z"/>
		<path id="Path 116" class="s49" d="m159 255c0 0.55-1.06 0.89-2.37 0.75-2.21-0.23-2.43 0.22-3.44 7.25-0.59 4.13-1.55 7.61-2.13 7.75-0.58 0.14-0.84 0.59-0.58 1 0.27 0.41-0.51 1.65-1.73 2.75l-2.22 2c2.09-3.1 1.06-2.2-0.95 0-2 2.2-4.42 5.24-5.36 6.75-0.95 1.52-2.4 3.02-3.22 3.35-1.31 0.51-1.32 0.35-0.07-1.26 0.78-1.01-0.62 0.41-3.11 3.16l-4.54 5c-15.72 0-20.28 0.34-20.28 0.75 0 0.41-0.34 0.55-0.75 0.32-0.41-0.24-1.36-0.13-2.11 0.25q-1.36 0.69-0.75 3.43c0.51 2.32 1.2 2.8 4.36 3.08 2.96 0.26 2.59 0.39-1.75 0.62-4.49 0.23-4.95 0.41-2.5 0.94 1.65 0.35 5.32 0.41 8.15 0.13 2.83-0.29 4.97-0.18 4.75 0.23-0.22 0.41 1.63 0.52 4.1 0.25 2.53-0.28 4.72-0.06 5 0.5 0.33 0.65 1.1 0.66 2.25 0.03 0.96-0.54 2.1-0.65 2.53-0.25 0.43 0.39 0.76-0.52 0.75-2.03-0.02-1.51 0.42-2.75 0.97-2.75 0.56 0 0.68-0.76 0.27-1.75-0.52-1.24-0.37-1.53 0.5-1 0.79 0.48 1.59-0.15 2.23-1.75 0.55-1.38 1.56-2.39 2.25-2.25 0.69 0.14 1.13-0.43 0.97-1.25-0.15-0.82 0.75-2.17 2-2.99 1.26-0.82 2.5-1.4 2.78-1.29 0.28 0.12 2.07-1.36 4-3.27 1.93-1.92 3.05-3.46 2.5-3.44-0.55 0.03-0.1-0.85 1-1.96 1.1-1.11 2.34-1.8 2.75-1.53 0.41 0.26 1.08-0.08 1.49-0.77 0.53-0.9 0.32-1-0.75-0.35-0.82 0.5-0.59 0 0.51-1.12 1.1-1.11 2.44-1.74 2.98-1.4 0.62 0.39 0.66-0.12 0.11-1.38-0.47-1.1-0.98-4.48-1.14-7.5-0.19-3.9-0.04-4.77 0.54-3 0.66 2.05 0.83 1.65 0.91-2.25 0.06-2.61-0.12-4.75-0.4-4.75-0.28 0-0.5 0.45-0.5 1z"/>
		<path id="Path 117" class="s46" d="m112.5 296.85c0.28 0.63-0.26 1.26-1.19 1.4-1.25 0.18-0.99 0.58 1 1.5 2.53 1.18 2.65 1.12 1.94-0.88-0.41-1.17-1.09-2.36-1.5-2.65-0.41-0.29-0.53-0.01-0.25 0.63z"/>
		<path id="Path 118" class="s47" d="m134.48 255.68c-0.45 0.36-0.74 1.03-0.65 1.49 0.1 0.45 0.85 1.06 1.67 1.33 0.82 0.27 1.73 0.05 2-0.5 0.28-0.55-0.11-1.45-0.85-1.99-0.75-0.55-1.72-0.7-2.17-0.33z"/>
		<path id="Path 119" class="s45" d="m122.84 256.78c-0.04 0.4-0.02 1.06 0.04 1.47 0.07 0.41-0.33 0.53-0.88 0.25-0.55-0.27-1.45 0.4-2 1.5-0.65 1.3-0.66 2.61-0.03 3.75 0.89 1.61 0.98 1.59 1.12-0.25 0.08-1.1 0.09-2.34 0.03-2.75-0.07-0.41 0.78-0.75 1.88-0.75 1.1 0 1.78-0.45 1.5-1-0.28-0.55 0.06-1.14 0.75-1.32 0.75-0.19 0.54-0.57-0.55-0.96-0.98-0.36-1.82-0.33-1.86 0.06z"/>
		<path id="Path 120" class="s41" d="m63.52 260.22c-0.38 1.8-0.44 5.08-0.13 7.28 0.31 2.2 0.81 4.22 1.12 4.5 0.3 0.27 0.53-0.06 0.52-0.75-0.02-0.75 0.76-1.05 1.97-0.75 1.1 0.27 2 0.05 2-0.5 0-0.55-1.13-1.23-2.5-1.5-1.38-0.28-2.52-1.06-2.54-1.75-0.03-0.69 0.68-1.93 1.58-2.75 1.33-1.23 1.98-1.27 3.54-0.25 1.06 0.69 3.61 1.26 5.67 1.28 2.62 0.03 4.35-0.63 5.75-2.17 1.1-1.21 1.44-1.9 0.75-1.53-0.69 0.37-1.93 0.22-2.75-0.33-0.83-0.55-2.29-0.77-3.25-0.5-0.96 0.28-3.21 0.73-5 1-2.27 0.35-3.17 0.12-3-0.75 0.14-0.69-0.31-1.14-1-1-0.69 0.14-1.03-0.2-0.75-0.75 0.28-0.55 0.1-1.24-0.39-1.53-0.49-0.29-1.2 0.95-1.59 2.75z"/>
		<path id="Path 121" class="s39" d="m79.77 258.75c0.48 1.23 0.32 1.53-0.54 1-0.68-0.41-1.23-0.3-1.23 0.25 0 0.55 0.45 1.23 1 1.5 0.55 0.27 1.9 0.05 3-0.5 1.1-0.55 2-1.68 2-2.5 0-0.93-0.94-1.5-2.45-1.5-1.93 0-2.31 0.37-1.78 1.75z"/>
		<path id="Path 122" class="s29" d="m82.45 261.25l-3.95 4.25c6.61-6.2 8.52-8.11 8.52-8.25-0.01-0.14-0.15-0.25-0.32-0.25-0.16 0-2.08 1.91-4.25 4.25z"/>
		<path id="Path 123" class="s47" d="m149.6 260.5c-0.51 2.64-0.4 4.08 0.32 4.25 0.59 0.14 0.86 1.15 0.58 2.25-0.32 1.27-0.96 1.73-1.75 1.26q-1.24-0.73-0.5 0.5c0.41 0.68 1.2 1.24 1.75 1.24 0.55 0 1.28-1.69 1.62-3.75 0.34-2.06 0.19-5.1-0.32-6.75l-0.93-3z"/>
		<path id="Path 124" class="s39" d="m85.83 260.67c0.09 0.73 0.84 1.56 1.67 1.83q1.5 0.5 1.33-1.33c-0.09-1.01-0.84-1.84-1.66-1.84-0.83 0-1.43 0.6-1.34 1.34z"/>
		<path id="Path 125" class="s31" d="m57.05 260.75c-0.9 0.26-1.35 1.43-1.18 3.08 0.15 1.47 0.66 3.57 1.13 4.67l0.86 2c0.05-3.68 0.3-3.8 1.6-2.75 1.25 1.02 1.63 0.97 2.04-0.25 0.28-0.82 0.29-2.77 0.03-4.33-0.27-1.56-1.05-2.84-1.75-2.84-0.71 0-1.93 0.19-2.73 0.42z"/>
		<path id="Path 126" class="s41" d="m81.47 264c-2.27 2.26-3.92 3-6.74 3-2.43 0-3.9 0.52-4.23 1.5-0.28 0.82-0.28 1.5 0 1.5 0.28 0 1.48-0.49 2.69-1.1 1.2-0.6 1.91-0.72 1.59-0.25-0.33 0.47 0.82 0.93 2.56 1.02 2.15 0.11 4.36-0.76 6.91-2.75 3.16-2.46 3.55-3.16 2.5-4.46-0.69-0.85-1.48-1.53-1.77-1.5-0.28 0.02-1.86 1.39-3.51 3.04z"/>
		<path id="Path 127" class="s34" d="m105.4 263c0.33 0.55 1.27 1 2.1 1 0.82 0 1.72-0.45 2-1 0.27-0.55-0.67-1-2.1-1-1.47 0-2.34 0.44-2 1z"/>
		<path id="Path 128" class="s45" d="m115.04 264.22c-1.35 0.6-2.36 1.35-2.24 1.68 0.12 0.33 1.22 0.54 2.46 0.48 1.23-0.07 2.46-0.18 2.74-0.25 0.27-0.07 0.54-0.81 0.58-1.63 0.05-0.83-0.18-1.47-0.5-1.43-0.32 0.03-1.69 0.55-3.04 1.15z"/>
		<path id="Path 129" class="s41" d="m84.07 269c-2.79 2.75-5.52 4.77-6.07 4.5-0.55-0.27-1-1.18-1-2q0-1.5-1.75-0.87c-1.33 0.47-1.43 0.78-0.41 1.25 0.73 0.34 1.4 1.07 1.5 1.62 0.09 0.55 0.5 0.89 0.91 0.75 0.41-0.14 0.75 0.2 0.75 0.75 0 0.55 1.35 1 3 1 1.65 0 3 0.45 3 1 0 0.55-0.45 1.23-1 1.5-0.55 0.27-1.21-0.06-1.47-0.75q-0.45-1.16-0.38 0.25c0.05 0.82 0.03 2.06-0.03 2.75-0.07 0.73-0.85 1.01-1.87 0.67-1.67-0.54-1.67-0.52 0 0.5 1.39 0.86 2.15 0.62 3.72-1.17 1.08-1.24 1.97-3.38 1.98-4.75 0-1.45 1.29-3.76 3.05-5.5 1.67-1.65 3.03-3.79 3.02-4.75-0.01-0.96-0.44-1.75-0.95-1.75-0.52 0-3.22 2.25-6 5z"/>
		<path id="Path 130" class="s32" d="m56.56 269.5c0.33 1.65 1.35 3.8 2.27 4.78 0.92 0.98 2.23 1.77 2.92 1.75 0.69-0.02 1.47-0.71 1.75-1.53 0.27-0.82 1.06-1.21 1.75-0.85 0.69 0.35 0.24-0.32-1-1.5-1.24-1.18-2.03-2.83-1.75-3.65 0.27-0.82 0.05-1.5-0.5-1.5-0.55 0-0.98 0.56-0.96 1.25 0.04 0.89-0.41 0.82-1.54-0.25-1.42-1.34-1.59-1.29-1.61 0.5l-0.03 2c-1.69-3.57-1.76-3.36-1.3-1z"/>
		<path id="Path 131" class="s48" d="m69.48 269.5c-0.27 0.83-1.04 1.2-1.73 0.84-0.72-0.38-0.9-0.28-0.42 0.25 0.46 0.5 1.36 0.93 2 0.96 0.64 0.02 1.1 0.47 1.02 1-0.09 0.52 0.57 1.63 1.46 2.45 1.44 1.34 1.54 1.32 0.9-0.25-0.52-1.29-0.31-1.62 0.79-1.25 0.82 0.27 1.56 0.24 1.64-0.07 0.08-0.32-0.59-1.22-1.5-2-0.9-0.79-2.09-1.43-2.64-1.43-0.55 0-0.79-0.45-0.54-1 0.26-0.55 0.25-1-0.02-1-0.27 0-0.7 0.68-0.96 1.5z"/>
		<path id="Path 132" class="s47" d="m73.3 268.77c-0.66 0.4-0.88 1.29-0.5 1.98 0.55 0.98 1.14 0.92 2.7-0.25l2-1.5c-3.44 1.25-3.8 1.11-3.29 0.23 0.4-0.68 0.62-1.22 0.5-1.21-0.11 0-0.75 0.34-1.41 0.75z"/>
		<path id="Path 133" class="s41" d="m89.2 271.39c-1.57 1.71-2.94 4.12-3.03 5.36-0.09 1.24 0.48 3.49 1.29 5 1.13 2.15 1.19 3.03 0.25 4.03-0.97 1.01-0.8 1.16 0.79 0.7 1.39-0.4 2.07-1.56 2.24-3.78 0.13-1.76-0.21-3.76-0.75-4.45q-0.98-1.25 0.01-1.75c0.55-0.27 1.34-0.24 1.75 0.09 0.41 0.32 0.75 2.79 0.75 5.48 0 3.77 0.46 5.2 2 6.25 1.1 0.75 2.94 1.55 4.1 1.77 1.54 0.3 2.14-0.12 2.24-1.59 0.08-1.1 0.42-5.37 0.75-9.5 0.55-6.71 0.42-7.57-1.24-8.18-1.02-0.37-2.2-0.37-2.63 0-0.43 0.38-0.75 3.16-0.72 6.18 0.04 3.1 0.69 6.37 1.5 7.5 0.79 1.1 1.23 2.34 0.97 2.75-0.26 0.41-1.37 0.75-2.47 0.75-1.1 0-2.22-0.67-2.5-1.5-0.28-0.82-0.09-2.06 0.42-2.75 0.51-0.69 1.03-4.4 1.18-8.25 0.24-6.54 0.11-7.01-1.89-7.11-1.22-0.06-3.38 1.23-5.01 3z"/>
		<path id="Path 134" class="s41" d="m118.75 268.62c-1.67 0.36-1.67 0.5 0 2.93 1.29 1.87 2.02 2.23 2.75 1.37 0.68-0.8 0.6-1.29-0.25-1.55-0.89-0.26-0.96-0.8-0.22-1.87 0.56-0.82 0.68-1.45 0.25-1.38-0.43 0.06-1.57 0.28-2.53 0.5z"/>
		<path id="Path 135" class="s48" d="m120.63 269.95c-0.35 0.58-0.07 1.2 0.62 1.39 0.94 0.25 0.88 0.77-0.25 2.13-1.18 1.41-1.34 3.14-0.75 8.16 0.68 5.74 0.58 6.34-1 6.1-1.4-0.22-1.68-1.06-1.37-4.25 0.2-2.19 0.09-4.54-0.25-5.23-0.49-0.96-0.97-0.91-2.13 0.25-0.82 0.83-1.51 2.06-1.52 2.75-0.01 0.69 0.39 1.7 0.89 2.25 0.5 0.55 1.18 2.01 1.52 3.25 0.48 1.79 0.2 2.25-1.39 2.25-1.37 0-1.89 0.55-1.65 1.75 0.29 1.47 1.53 1.76 7.75 1.82l7.4 0.07c17.4-17.16 22.22-22.37 21.94-22.64-0.28-0.27-5.55 4.56-11.72 10.74-6.17 6.19-11.56 11.25-11.97 11.25-0.41 0.01-0.3-0.89 0.25-1.99 0.82-1.64 0.69-1.96-0.75-1.75-1.37 0.2-1.71-0.41-1.56-2.75 0.1-1.65-0.45-3.9-1.22-5-1.21-1.74-1.17-2.36 0.32-4.77 1.23-2 1.43-3.23 0.71-4.4-0.55-0.89-1.51-1.8-2.12-2.03-0.62-0.22-1.41 0.07-1.75 0.65z"/>
		<path id="Path 136" class="s41" d="m114.55 283c-0.3 0.55-0.33 2.13-0.05 3.5 0.28 1.38 0.95 2.5 1.5 2.5 0.55 0 1-0.23 1-0.5 0-0.27-0.45-1.63-1-3-0.74-1.84-0.67-2.61 0.25-2.92 0.91-0.31 0.92-0.44 0.05-0.5-0.66-0.04-1.45 0.37-1.75 0.92z"/>
		<path id="Path 137" class="s41" d="m108.66 272.46c-0.36 0.85-0.66 4.24-0.66 7.54 0 4.14 0.39 6 1.25 5.98 0.69 0 1.84-0.34 2.56-0.75 0.96-0.54 1.11-2.03 0.55-5.73-0.41-2.75-0.77-5.64-0.8-6.41-0.03-0.78-0.55-1.59-1.15-1.8-0.6-0.2-1.39 0.32-1.75 1.17z"/>
		<path id="Path 138" class="s41" d="m113.75 274.97c0.14 2.21 0.7 4.03 1.25 4.03 0.55 0 1-0.45 1-1 0-0.55 0.45-0.78 1-0.5 0.59 0.29 0.9-0.84 0.75-2.75-0.18-2.38-0.78-3.33-2.25-3.53-1.75-0.25-1.97 0.22-1.75 3.75z"/>
		<path id="Path 139" class="s50" d="m158.55 273.19c-1.37 1.6-1.37 1.87-0.05 2.31 0.82 0.27 1.77-0.06 2.09-0.75 0.32-0.69 0.35-1.73 0.05-2.31-0.33-0.65-1.14-0.36-2.09 0.75z"/>
		<path id="Path 140" class="s51" d="m96.3 277c0 3.02 0.19 4.15 0.42 2.5 0.23-1.65 0.23-4.13 0-5.5-0.23-1.38-0.42-0.02-0.42 3z"/>
		<path id="Path 141" class="s41" d="m103.11 278.75c0.07 3.71 0.52 7.54 1.01 8.5 0.64 1.28 0.48 1.75-0.62 1.75-0.83 0-1.5 0.68-1.5 1.5 0 0.82 0.67 1.73 1.5 2q1.5 0.5 1-1c-0.28-0.82 0.06-1.73 0.75-2.01 0.85-0.35 1.29-3.25 1.38-9 0.11-7.7-0.05-8.49-1.77-8.49-1.67 0-1.87 0.75-1.75 6.75z"/>
		<path id="Path 142" class="s47" d="m71.25 274.28q-0.73 1.18 0.5 0.46c0.8-0.47 1.28-0.11 1.33 1.01 0.04 0.96 0.27 1.19 0.5 0.5 0.23-0.69 0.87-1.25 1.42-1.25 0.55 0 0.78 0.68 0.5 1.5-0.28 0.83 0.06 1.48 0.75 1.46 0.89-0.04 0.81 0.41-0.25 1.52-1.36 1.42-1.69 1.4-3.5-0.21l-2-1.77c3.91 4.41 4.08 4.44 5.75 2.76 1.4-1.41 1.5-2.02 0.5-3.05-1-1.04-1-1.29 0-1.25 0.69 0.02 1.26-0.52 1.28-1.21 0.01-0.69-0.32-0.93-0.75-0.55-0.43 0.39-1.79 0.3-3.03-0.21-1.55-0.63-2.49-0.54-3 0.29z"/>
		<path id="Path 143" class="s52" d="m118.5 273.67c-0.46 0.36-0.77 3.18-0.69 6.25 0.07 3.07 0.39 5.35 0.71 5.08 0.32-0.27 0.67-3.09 0.78-6.25 0.11-3.16 0.16-5.75 0.12-5.75-0.05 0-0.46 0.3-0.92 0.67z"/>
		<path id="Path 144" class="s40" d="m62.6 275.25c0.22 0.41-0.16 0.74-0.85 0.74-0.9-0.01-0.82 0.45 0.25 1.61 0.83 0.89 1.95 1.41 2.5 1.14 0.55-0.26 1.27-1.33 1.59-2.36 0.46-1.46 0.09-1.88-1.65-1.88-1.24 0-2.07 0.34-1.84 0.75z"/>
		<path id="Path 145" class="s52" d="m152.94 277.52c-1.89 1.93-3.2 3.51-2.91 3.5 0.3-0.01-0.15 0.87-1 1.96-0.84 1.09-1.75 1.78-2.03 1.53-0.28-0.25-1.62 0.73-3 2.18-1.37 1.45-1.82 2.23-1 1.73 1.08-0.65 1.29-0.55 0.75 0.34-0.45 0.75-1.44 0.94-2.47 0.49-1.38-0.6-1.58-0.39-1 1 0.42 1.04 0.21 2.06-0.52 2.5-0.9 0.54-0.98 0.34-0.31-0.75 0.83-1.33 0.74-1.33-0.78 0-0.94 0.83-1.48 1.73-1.2 2 0.28 0.27 0.07 1.06-0.48 1.75-0.54 0.69-1.44 1.02-1.99 0.75-0.57-0.29-0.79 0.36-0.5 1.5 0.28 1.1 0.95 2 1.5 2 0.55 0 1-0.45 1-1 0-0.55 1.85-3.14 4.12-5.75 2.27-2.61 4.98-5.2 6.03-5.75 1.05-0.55 1.9-1.56 1.88-2.25-0.02-0.69 0.31-1.04 0.72-0.78 0.41 0.26 2.1-0.92 3.75-2.62 2.96-3.05 2.97-3.08 0.5-2.35l-2.5 0.74c4.53-4.84 5.63-6.24 5.37-6.24-0.27 0-2.03 1.58-3.93 3.52z"/>
		<path id="Path 146" class="s48" d="m74.33 276.52c0.09 1 0.84 2 1.67 2.22 1.33 0.37 1.33 0.3 0-0.61-0.83-0.56-1.28-1.28-1-1.6 0.28-0.32 1.04 0 1.69 0.7 0.76 0.8 0.87 1.82 0.3 2.77-0.75 1.26-1.34 1.06-3.69-1.23-1.54-1.5-3.14-2.74-3.55-2.75-0.41-0.01 3.19 3.79 8 8.45l8.75 8.47 18 0.01c-5.42-2.43-8.24-3.77-9.75-4.55-1.56-0.79-2.75-0.97-2.75-0.4 0 0.55-0.45 1-1 1-0.55 0-0.78-0.67-0.5-1.5 0.38-1.14-0.33-1.5-3-1.5-2.48 0-3.31 0.36-2.85 1.25 0.36 0.69 1.37 2.05 2.25 3.03 0.88 0.98 1.26 1.77 0.85 1.75-0.41-0.02-1.76-1.26-3-2.76-1.24-1.5-2.14-3.08-2-3.5 0.14-0.42-0.09-0.72-0.5-0.65-0.41 0.06-1.2 0.06-1.75-0.02-0.55-0.07-0.33-0.57 0.5-1.1q1.5-0.97 0.25-0.98c-0.7-0.01-0.95-0.57-0.56-1.27 0.55-1 0.4-1-0.75-0.01-0.79 0.69-1.77 0.91-2.18 0.5-0.41-0.41 0.69-1.41 2.44-2.24 1.75-0.82 3.32-2.06 3.49-2.75 0.2-0.82-0.89-1.25-3.19-1.25-1.92 0-4.14-0.29-4.92-0.65-0.97-0.44-1.37-0.06-1.25 1.17z"/>
		<path id="Path 147" class="s25" d="m154.92 277.55l-2.42 2.55c5.39-1.74 6.36-2.61 6.07-3.6-0.23-0.82-0.6-1.5-0.83-1.5-0.22 0-1.49 1.15-2.82 2.55z"/>
		<path id="Path 148" class="s43" d="m65.97 276.75c0.02 0.69-0.31 1.07-0.72 0.85-0.41-0.23-0.75 0.26-0.75 1.07 0 0.81 0.82 2.23 1.81 3.15 1.59 1.47 1.92 1.49 2.67 0.18 0.57-1.02 1.43-1.24 2.68-0.69 1.01 0.44 1.39 0.44 0.84-0.02-0.55-0.45-2.25-1.94-3.78-3.3-1.53-1.38-2.76-1.93-2.75-1.24z"/>
		<path id="Path 149" class="s50" d="m107.31 281.5c0.01 3.3 0.19 4.43 0.41 2.5 0.22-1.93 0.22-4.63-0.01-6-0.22-1.38-0.41 0.2-0.4 3.5z"/>
		<path id="Path 150" class="s23" d="m124 278.5c0 0.82 0.67 1.5 1.5 1.5 0.83 0 1.5-0.68 1.5-1.5 0-0.82-0.67-1.5-1.5-1.5-0.83 0-1.5 0.68-1.5 1.5z"/>
		<path id="Path 151" class="s52" d="m136.92 280.57c-1.88 1.87-3.19 3.62-2.92 3.9 0.28 0.27 2.08-1.06 4-2.97 1.93-1.91 3.24-3.66 2.92-3.9-0.32-0.23-2.12 1.1-4 2.97z"/>
		<path id="Path 152" class="s53" d="m153.45 282.25l-3.95 4.25c6.61-6.2 8.52-8.11 8.52-8.25-0.01-0.14-0.15-0.25-0.32-0.25-0.16 0-2.08 1.91-4.25 4.25z"/>
		<path id="Path 153" class="s46" d="m68.58 282.5c-0.38 0.99 1.56 3.47 5.65 7.25 3.43 3.16 6.24 6.05 6.25 6.42 0.01 0.36 0.37 1.04 0.8 1.5 0.43 0.46 0.76 2.07 0.75 3.58-0.03 2.58 0.08 2.65 1.72 1.11 1.63-1.52 1.8-1.51 2.43 0.25 0.6 1.67 0.69 1.69 0.75 0.14 0.04-0.96 0.63-2.09 1.31-2.5 0.91-0.55 0.98-0.36 0.25 0.73-0.79 1.17-0.63 1.33 0.76 0.75 1.02-0.43 1.85-0.27 2 0.37 0.14 0.62 1.32 0.21 2.75-0.97 1.72-1.42 2.03-2.08 1-2.11-1.33-0.05-1.33-0.17 0-1.12 1.13-0.81 0.65-0.93-2-0.5-2.6 0.42-3.05 0.31-1.75-0.42 0.96-0.54 1.75-1.43 1.75-1.98 0-0.55-0.56-0.89-1.25-0.75-0.68 0.14-1.81 0.93-2.5 1.75-1.09 1.31-1.19 1.27-0.75-0.25 0.27-0.96 0.05-1.75-0.5-1.75-0.55 0-2.12-1.35-3.5-3-1.37-1.65-2.95-2.77-3.5-2.5-0.55 0.27-1.22 0.05-1.5-0.5-0.28-0.55-0.95-1-1.5-1-0.55 0-0.78 0.45-0.5 1 0.29 0.58-0.23 0.74-1.25 0.37-1.49-0.53-1.53-0.74-0.25-1.39 1.23-0.63 1.01-1.24-1.25-3.37-1.51-1.44-3.39-2.61-4.17-2.61-0.77 0-1.67 0.68-2 1.5z"/>
		<path id="Path 154" class="s23" d="m83.55 282c-0.3 0.55-0.1 1.23 0.45 1.5 0.55 0.27 1.45 0.27 2 0 0.55-0.27 1-0.95 1-1.5 0-0.55-0.65-1-1.45-1-0.8 0-1.7 0.45-2 1z"/>
		<path id="Path 155" class="s37" d="m126.03 285q-1.02 2-0.03 2.5c0.55 0.27 1 0.27 1 0 0-0.27 0.11-0.97 0.25-1.54 0.14-0.57 0.93-1.46 1.75-1.98 1.28-0.81 1.25-0.95-0.22-0.96-0.95-0.01-2.19 0.88-2.75 1.98z"/>
		<path id="Path 156" class="s49" d="m76.5 286c0.28 0.55-0.06 1.14-0.75 1.32-0.78 0.19-0.59 0.57 0.5 1 0.96 0.37 1.7 0.34 1.63-0.07-0.06-0.41-0.08-1.2-0.04-1.75 0.04-0.55 0.88-0.35 1.87 0.45 1.56 1.27 1.62 1.27 0.48 0-0.73-0.8-1.96-1.56-2.75-1.7-0.79-0.14-1.22 0.2-0.94 0.75z"/>
		<path id="Path 157" class="s53" d="m141.45 293.25l-3.95 4.25c6.61-6.2 8.52-8.11 8.52-8.25-0.01-0.14-0.15-0.25-0.32-0.25-0.16 0-2.08 1.91-4.25 4.25z"/>
		<path id="Path 158" class="s49" d="m89.5 293.72c1.65 0.23 4.58 0.23 6.5 0 1.92-0.22 0.58-0.4-3-0.4-3.58 0-5.15 0.18-3.5 0.4z"/>
		<path id="Path 159" class="s46" d="m97.35 294.02c-1.02 0.4-2.3 0.53-2.85 0.28-0.55-0.25-0.23 0.15 0.71 0.88 0.94 0.72 1.73 1.88 1.75 2.57 0.02 0.69 0.6 1.44 1.29 1.67q1.19 0.41-0.25 0.47c-0.82 0.02-2.4 1.04-3.5 2.25-1.17 1.29-1.38 1.87-0.5 1.39 0.83-0.44 5.33-1 10-1.24 4.68-0.23 8.69-0.62 8.92-0.86 0.23-0.24-1.24-0.43-3.25-0.43-3.19 0-3.75-0.36-4.28-2.75-0.4-1.81-0.15-3 0.75-3.48 1.08-0.59 1.04-0.74-0.19-0.75-0.85-0.01-2.12 0.54-2.82 1.23-1.01 1-1.53 0.93-2.59-0.35-0.86-1.03-1.99-1.34-3.19-0.88z"/>
		<path id="Path 160" class="s51" d="m91.75 296.19c-1.68 1.74-1.62 1.79 1.5 1.23 2.47-0.45 2.89-0.33 1.75 0.48q-1.53 1.08-0.25 1.08c0.69 0.01 1.03 0.47 0.75 1.02-0.3 0.61 0.38 0.74 1.75 0.33 1.24-0.38 1.69-0.83 1-1-0.69-0.18-1.25-1.01-1.25-1.83 0-0.82-0.45-1.5-1-1.5-0.55 0-0.82-0.34-0.6-0.75 0.23-0.41-0.11-0.77-0.75-0.81-0.63-0.03-1.94 0.76-2.9 1.75z"/>
		<path id="Path 161" class="s43" d="m87.26 302.25c-0.54 2.05-0.65 2.08-1.21 0.38-0.57-1.73-0.75-1.75-2.33-0.25-0.95 0.89-1.72 1.96-1.72 2.37 0 0.41 1.58 0.64 3.5 0.5 1.93-0.14 3.5 0.09 3.5 0.5 0 0.41 0.56 0.8 1.25 0.86 0.69 0.06 2.04-1.18 3-2.75 1.71-2.8 1.71-2.84-0.25-1.86q-2 1-2 0c0-0.56-0.76-0.68-1.75-0.27-1.23 0.51-1.54 0.36-1.04-0.5 0.4-0.68 0.47-1.23 0.18-1.23-0.3 0-0.81 1.01-1.13 2.25z"/>
		<path id="Path 162" class="s48" d="m95.13 307.25l0.13 4.25c1.11-6.22 1.72-7 3.39-7 1.17 0 1.96-0.34 1.74-0.75-0.21-0.41-1.51-0.75-2.89-0.75-2.3 0-2.49 0.35-2.37 4.25z"/>
		<path id="Path 163" class="s47" d="m112 304.01c-2.14 0.51-2.26 0.73-0.86 1.54 0.9 0.52 1.86 1.85 2.13 2.95 0.45 1.81 0.51 1.79 0.61-0.25 0.07-1.36 0.91-2.45 2.12-2.75 1.1-0.27 1.9-0.85 1.79-1.29-0.12-0.43-0.91-0.78-1.75-0.79-0.85 0-2.67 0.27-4.04 0.59z"/>
		<path id="Path 164" class="s46" d="m119.19 303.81c-0.36 0.17-0.21 1.19 0.33 2.27 0.54 1.08 1.65 1.77 2.48 1.53 0.83-0.24 3.64-0.7 6.25-1.03 2.82-0.34 4.65-1.05 4.5-1.73-0.14-0.64-1.22-1.2-2.4-1.25-1.2-0.06-1.86 0.34-1.5 0.89q0.64 0.98-0.85 0c-0.83-0.54-3-0.99-4.83-0.99-1.84 0-3.63 0.14-3.98 0.31z"/>
		<path id="Path 165" class="s47" d="m94.3 309c0 3.02 0.19 4.15 0.42 2.5 0.23-1.65 0.23-4.13 0-5.5-0.23-1.38-0.42-0.02-0.42 3z"/>
		<path id="Path 166" class="s47" d="m96.38 304.79c-0.39 0.3-0.64 2.49-0.55 4.88 0.1 2.38 0.62 4.56 1.17 4.83 0.55 0.27 0.99 1.06 0.98 1.75q-0.01 1.25-0.98-0.25c-0.72-1.12-0.97-0.54-0.98 2.25-0.01 2.06 0.43 3.98 0.98 4.25 0.55 0.27 0.78-0.18 0.5-1-0.28-0.83 0.06-1.51 0.75-1.52q1.25-0.01-0.25-0.98-1.5-0.97-0.25-0.98c0.7-0.01 1.24-1.23 1.22-2.77-0.02-1.51 0.9-3.65 2.04-4.75 1.14-1.1 1.83-2.56 1.53-3.25-0.33-0.76 0.24-1.25 1.46-1.25 1.1 0 1.94-0.43 1.88-0.96-0.07-0.53-2.08-0.93-4.46-0.88-2.37 0.05-4.64 0.34-5.04 0.63z"/>
		<path id="Path 167" class="s40" d="m82.49 305.66c-0.45 0.37-0.75 0.94-0.66 1.26 0.1 0.32 1.41 0.61 2.92 0.64 1.51 0.03 3.43 0.25 4.25 0.49 0.83 0.24 1.5-0.01 1.5-0.56 0-0.54-0.34-0.88-0.75-0.74-0.41 0.14-0.74-0.1-0.73-0.54 0.01-0.43-1.27-0.88-2.84-1-1.57-0.12-3.23 0.09-3.69 0.45z"/>
		<path id="Path 168" class="s54" d="m93.32 311c0 3.57 0.18 4.93 0.4 3 0.23-1.93 0.23-4.85 0-6.5-0.22-1.65-0.4-0.07-0.4 3.5z"/>
		<path id="Path 169" class="s41" d="m109.45 307.75c0.18 1.51 0.37 3.31 0.44 4 0.06 0.69 0.56 1.02 1.11 0.75 0.55-0.27 0.81-1.06 0.59-1.75-0.23-0.69-0.03-1.93 0.44-2.75 0.54-0.94 0.42-1.77-0.33-2.23-0.66-0.41-1.51-0.75-1.89-0.75-0.37-0.01-0.54 1.22-0.36 2.73z"/>
		<path id="Path 170" class="s48" d="m115.5 306c-1.71 0.73-1.75 0.87-0.25 0.93 1.1 0.04 1.56 0.63 1.25 1.57-0.28 0.82-0.05 1.5 0.5 1.5 0.55 0 1-1.13 1-2.5 0-1.38-0.11-2.47-0.25-2.43-0.14 0.04-1.15 0.46-2.25 0.93z"/>
		<path id="Path 171" class="s32" d="m91.71 307.46c-0.59 1.27-1.27 1.35-3.96 0.44-1.79-0.6-3.81-0.83-4.5-0.5-0.69 0.33-1.25 0.94-1.25 1.35 0.01 0.41 2.26 0.86 5 1 3.85 0.19 5.07-0.1 5.28-1.29 0.16-0.85 0.26-1.77 0.22-2.05-0.04-0.27-0.4 0.2-0.79 1.05z"/>
		<path id="Path 172" class="s43" d="m127 306.67c-1.38 0.21-3.47 0.61-4.66 0.88-1.19 0.27-2.2 0.82-2.25 1.22-0.05 0.4 2.27 0.61 5.16 0.47 3.18-0.16 5.72-0.85 6.45-1.75 0.96-1.21 0.87-1.46-0.5-1.35-0.94 0.07-2.83 0.31-4.2 0.53z"/>
		<path id="Path 173" class="s10" d="m81.33 313.5c0 3.85 0.18 5.2 0.4 3 0.21-2.2 0.21-5.35-0.01-7-0.22-1.65-0.4 0.15-0.39 4z"/>
		<path id="Path 174" class="s41" d="m103.5 308.47c-1.1 0.92-1.44 1.42-0.75 1.1 0.88-0.4 1.26 0.55 1.28 3.18 0.02 2.97 0.23 3.38 1 2 0.53-0.96 0.86-3.15 0.72-4.85-0.25-2.99-0.33-3.04-2.25-1.43z"/>
		<path id="Path 175" class="s40" d="m131.45 307.94c-0.52 0.52-3.16 1.08-5.87 1.25-2.87 0.18-5.06 0.83-5.25 1.56-0.24 0.92 1.37 1.18 6.17 1 6-0.23 6.5-0.42 6.5-2.5 0-1.24-0.13-2.25-0.3-2.25-0.16 0-0.73 0.42-1.25 0.94z"/>
		<path id="Path 176" class="s31" d="m82.33 309.82c-0.36 0.28-0.59 0.78-0.5 1.1 0.1 0.32 2.65 0.58 5.67 0.58 3.02 0 5.5-0.45 5.49-1 0-0.55-2.25-1.05-5-1.1-2.75-0.06-5.3 0.13-5.66 0.42z"/>
		<path id="Path 177" class="s41" d="m113.48 309.68c-0.45 0.36-0.76 1.37-0.69 2.24 0.1 1.26 0.38 1.33 1.42 0.34 0.71-0.69 1.6-0.91 1.99-0.5 0.38 0.41 0.41 1.42 0.06 2.24-0.36 0.82-1.3 2.18-2.1 3-1.23 1.27-1.24 1.55-0.06 1.86 0.77 0.19 1.77-0.26 2.22-1 0.44-0.75 0.47-0.24 0.06 1.14-0.54 1.82-0.42 2.29 0.44 1.75 0.66-0.42 1.19-3.07 1.21-6 0.01-2.89-0.32-4.92-0.75-4.51-0.43 0.41-1.28 0.3-1.88-0.24-0.61-0.54-1.47-0.69-1.92-0.32z"/>
		<path id="Path 178" class="s30" d="m82.39 311.76c-0.4 0.32-0.65 1.4-0.56 2.41 0.11 1.15 0.73 1.64 1.67 1.33 0.83-0.27 2.1 0.06 2.83 0.75 0.73 0.69 1.17 1.7 0.97 2.25-0.19 0.55 0.83 1.23 2.27 1.5 1.45 0.27 2.83 0.05 3.08-0.5 0.25-0.55 0.31-2.55 0.15-4.45-0.29-3.37-0.41-3.46-4.99-3.66-2.58-0.11-5.02 0.05-5.42 0.37z"/>
		<path id="Path 179" class="s17" d="m95.34 318.5c0.01 4.4 0.18 5.98 0.39 3.5 0.21-2.48 0.21-6.07 0-8-0.22-1.93-0.39 0.1-0.39 4.5z"/>
		<path id="Path 180" class="s41" d="m99.55 312c-0.3 0.55 0.24 1.44 1.2 1.97 0.96 0.53 1.3 0.98 0.75 1-0.55 0.01-1.14 1.49-1.32 3.28-0.29 2.95-0.17 3.11 1.3 1.75 0.88-0.82 1.59-2.51 1.56-3.75-0.02-1.24-0.71-2.48-1.54-2.75-0.82-0.27-1.29-0.95-1.04-1.5 0.26-0.55 0.28-1 0.05-1-0.23 0-0.66 0.45-0.96 1z"/>
		<path id="Path 181" class="s32" d="m124.75 311.68c-2.61 0.18-4.75 0.77-4.75 1.32 0 0.57 2.17 0.89 5 0.75 2.76-0.14 5.01-0.59 5-1 0-0.41 0.79-0.42 1.75-0.02 1.24 0.52 1.53 0.37 1-0.5-0.41-0.68-1.31-1.15-2-1.05-0.69 0.1-3.39 0.32-6 0.5z"/>
		<path id="Path 182" class="s30" d="m133 312.75c0 0.96-0.56 1.84-1.25 1.94-0.69 0.1-3.5 0.56-6.25 1.01-4.32 0.7-5.04 1.15-5.29 3.31-0.21 1.9 0.18 2.49 1.66 2.49 1.07 0 2.29-0.34 2.7-0.75 0.42-0.41 2.04-0.75 3.6-0.75 1.55 0 2.83-0.45 2.83-1 0-0.55 0.68-0.77 1.5-0.5 1.17 0.39 1.5-0.39 1.5-3.5 0-2.2-0.22-4-0.5-4-0.28 0-0.5 0.79-0.5 1.75z"/>
		<path id="Path 183" class="s31" d="m129.95 313.03c0.03 0.53-0.29 0.92-0.7 0.85-0.41-0.06-2.66-0.06-5 0-2.68 0.08-4.24 0.58-4.23 1.37 0.01 0.95 1.29 1.05 5.25 0.43 2.87-0.46 5.79-0.91 6.48-1 0.69-0.1 1.23-0.47 1.2-0.82-0.02-0.36-0.72-0.91-1.54-1.22-0.83-0.32-1.48-0.14-1.46 0.39z"/>
		<path id="Path 184" class="s28" d="m82.5 315.67c-0.46 0.36-0.76 1.49-0.67 2.5 0.12 1.24 0.97 1.83 2.67 1.83 1.38 0 2.65-0.56 2.83-1.25 0.18-0.69-0.27-1.81-1-2.5-0.73-0.69-1.71-1.25-2.16-1.25-0.46 0-1.21 0.3-1.67 0.67z"/>
		<path id="Path 185" class="s24" d="m111.63 319.5c0.36 2.2 0.82 6.02 1.02 8.5 0.19 2.48 0.59 4.73 0.88 5 0.29 0.27 0.57-0.63 0.62-2 0.05-1.38 0.07-3.4 0.03-4.5-0.03-1.1-0.76-4.02-1.63-6.5l-1.58-4.5z"/>
		<path id="Path 186" class="s17" d="m93.2 326.5c-0.11 6.58 0.32 11.37 1.27 14l1.44 4c0.08-12.08 0.51-14.67 1.34-15.01 0.69-0.28 1.34-1.51 1.44-2.75l0.19-2.24c-2.19 3.96-2.57 4.08-3.63 2.9-0.69-0.77-1.39-3.54-1.57-6.15-0.18-2.61-0.39-0.25-0.48 5.25z"/>
		<path id="Path 187" class="s39" d="m101.5 318.85c0.28 0.63 0.05 1.38-0.5 1.65-0.55 0.27-0.96 1.96-0.92 3.75 0.04 1.79 0.3 2.57 0.58 1.75 0.27-0.83 0.76-2.18 1.07-3 0.31-0.83 0.73-2.06 0.92-2.75 0.19-0.69-0.1-1.54-0.65-1.9-0.55-0.36-0.78-0.14-0.5 0.5z"/>
		<path id="Path 188" class="s28" d="m89.95 325.42c0.15 2.79 0.45 4.29 0.67 3.33 0.21-0.96 0.83-1.75 1.38-1.75 0.55 0 0.92-1.5 0.83-3.33q-0.16-3.34-1.66-3.34c-1.18 0-1.44 1.11-1.22 5.09z"/>
		<path id="Path 189" class="s41" d="m96.9 320.5c-0.02 0.55-0.21 2.8-0.42 5-0.21 2.2-0.18 3.44 0.07 2.75 0.25-0.69 0.79-1.07 1.2-0.85 0.41 0.22 0.75-1.09 0.75-2.91 0-1.83-0.35-3.69-0.78-4.15-0.43-0.46-0.8-0.39-0.82 0.16z"/>
		<path id="Path 190" class="s19" d="m126 322c0 1.1 0.22 2 0.5 2 0.28 0 0.95-0.9 1.5-2 0.78-1.56 0.67-2-0.5-2-0.83 0-1.5 0.89-1.5 2z"/>
		<path id="Path 191" class="s28" d="m119.74 323.7c0.42 1.28 1.44 2.56 2.26 2.84 0.83 0.28 1.83-0.06 2.23-0.76 0.41-0.71 0.66-1.99 0.57-2.85-0.1-1.01-1.16-1.57-2.99-1.57-2.52 0-2.75 0.26-2.07 2.34z"/>
		<path id="Path 192" class="s55" d="m101.55 322.6c-0.49 0.41-0.78 1.9-0.65 3.32l0.23 2.58c1.49-3.88 1.79-5.37 1.62-5.81-0.18-0.45-0.71-0.49-1.2-0.09z"/>
		<path id="Path 193" class="s38" d="m105.03 324c-0.57 1.1-0.84 2.56-0.61 3.25 0.23 0.69 0.46 0.46 0.5-0.5 0.05-1.18 0.9-1.75 2.58-1.75 2.38 0 2.5 0.28 2.47 5.75-0.01 3.16 0.15 5.52 0.36 5.25 0.22-0.27 0.68-3.54 1.03-7.25l0.64-6.75c-4.93 0-6.29 0.68-6.97 2z"/>
		<path id="Path 194" class="s22" d="m119.25 323.5c-0.01 1.1 0.27 3.31 0.62 4.9 0.43 1.99 1.34 3.01 2.88 3.25 2 0.31 2.25-0.07 2.23-3.4 0-2.1-0.33-3.19-0.75-2.47-0.4 0.7-1.52 1.04-2.48 0.75-0.96-0.29-1.91-1.54-2.11-2.78-0.29-1.77-0.37-1.82-0.39-0.25z"/>
		<path id="Path 195" class="s56" d="m89.32 330c0 3.57 0.18 4.93 0.4 3 0.23-1.93 0.23-4.85 0-6.5-0.22-1.65-0.4-0.07-0.4 3.5z"/>
		<path id="Path 196" class="s57" d="m127.3 331c0 3.02 0.19 4.15 0.42 2.5 0.23-1.65 0.23-4.13 0-5.5-0.23-1.38-0.42-0.02-0.42 3z"/>
		<path id="Path 197" class="s22" d="m90.61 329.25c-0.32 1.24-0.59 2.81-0.6 3.5 0 0.69 0.44 1.02 0.99 0.75 0.55-0.27 1.2 0.06 1.45 0.75 0.25 0.69 0.41-0.66 0.35-3-0.05-2.34-0.43-4.25-0.85-4.25-0.42 0-1.02 1.01-1.34 2.25z"/>
		<path id="Path 198" class="s11" d="m107.65 337.75c0.35 5.91 0.81 10.98 1.03 11.25 0.23 0.27 0.35-4.56 0.28-10.75-0.08-6.19-0.54-11.25-1.04-11.25-0.52 0-0.63 4.56-0.27 10.75z"/>
		<path id="Path 199" class="s58" d="m108.97 332.75c0.02 2.89 0.48 5.25 1.03 5.25 0.62 0 0.76-1.83 0.37-4.75-0.35-2.61-0.81-4.98-1.03-5.25-0.22-0.27-0.38 1.86-0.37 4.75z"/>
		<path id="Path 200" class="s26" d="m99.64 331.75c0.19 1.51 0.58 2.98 0.88 3.25 0.29 0.27 0.52-0.96 0.51-2.75-0.02-1.79-0.41-3.25-0.88-3.25-0.46 0-0.69 1.24-0.51 2.75z"/>
		<path id="Path 201" class="s11" d="m119.16 336l-0.12 7.5c3.11-3.88 4.43-5.68 4.94-6.5 0.69-1.12 0.3-1.82-1.53-2.75-1.35-0.69-2.61-2.26-2.81-3.5-0.2-1.24-0.42 1.13-0.48 5.25z"/>
		<path id="Path 202" class="s7" d="m119.9 332.09c0.05 0.5 1 1.36 2.1 1.91 1.1 0.55 2.22 1 2.5 1 0.27 0 0.5-0.67 0.5-1.5 0-0.82-0.34-1.53-0.75-1.58-0.41-0.04-1.58-0.22-2.6-0.41-1.02-0.18-1.81 0.08-1.75 0.58z"/>
		<path id="Path 203" class="s39" d="m96.1 334.44c-0.05 1.41 0.35 2.79 0.9 3.06 0.55 0.27 1.05-0.6 1.1-1.94 0.06-1.34-0.35-2.72-0.9-3.06-0.56-0.35-1.04 0.51-1.1 1.94z"/>
		<path id="Path 204" class="s24" d="m101.64 332.75c-0.25 0.41-0.72 2.55-1.05 4.75-0.33 2.2-0.39 3.55-0.15 3 0.24-0.55 0.85-2.69 1.34-4.75 0.5-2.06 0.77-3.75 0.61-3.75-0.16 0-0.5 0.34-0.75 0.75z"/>
		<path id="Path 205" class="s21" d="m116.62 336.5c-0.34 2.48-0.18 5.29 0.35 6.25 0.71 1.28 0.98 0.08 1-4.5 0.02-3.44-0.14-6.25-0.35-6.25-0.21 0-0.66 2.02-1 4.5z"/>
		<path id="Path 206" class="s7" d="m91.67 336.5c0.34 2.2 0.79 4.23 1 4.5 0.21 0.27 0.37-0.85 0.34-2.5-0.02-1.65-0.47-3.68-1-4.5-0.65-1.02-0.76-0.22-0.34 2.5z"/>
		<path id="Path 207" class="s59" d="m101.25 338.04c-0.69 2.73-1.25 5.41-1.25 5.96 0 0.55 0.45 0.77 1 0.5 0.55-0.27 1.26-2.78 1.58-5.56 0.33-2.79 0.44-5.24 0.25-5.46-0.18-0.21-0.89 1.84-1.58 4.56z"/>
		<path id="Path 208" class="s16" d="m90.01 347c0.04 10.44 0.3 13.05 1.16 11.5 0.61-1.1 1.16-6.59 1.22-12.2 0.08-7.01-0.29-10.61-1.16-11.5-1.02-1.05-1.25 1.29-1.22 12.2z"/>
		<path id="Path 209" class="s8" d="m105.97 347.75c-0.01 7.56 0.21 13.52 0.49 13.25 0.28-0.27 0.63-6.46 0.78-13.75 0.15-7.29-0.07-13.25-0.49-13.25-0.41 0-0.76 6.19-0.78 13.75z"/>
		<path id="Path 210" class="s45" d="m112.18 338.99c0.27 4.58 0.65 5.54 2.32 5.8 1.25 0.2 1.56 0.02 0.82-0.49-0.64-0.44-1.44-2.82-1.76-5.3-0.32-2.48-0.84-4.73-1.14-5-0.31-0.27-0.42 1.97-0.24 4.99z"/>
		<path id="Path 211" class="s58" d="m105.29 339.5c0 2.83 0.19 3.7 0.42 2 0.23-1.65 0.23-3.9-0.01-5-0.24-1.1-0.42 0.25-0.41 3z"/>
		<path id="Path 212" class="s38" d="m103.16 339.19c-0.02 1.82 0.33 5.11 0.78 7.31 0.78 3.78 0.84 3.63 1.05-2.69 0.12-3.68-0.24-6.97-0.79-7.31-0.58-0.36-1.01 0.75-1.04 2.69z"/>
		<path id="Path 213" class="s26" d="m96.16 339.64c0.07 1.57-0.28 3.66-0.77 4.65-0.58 1.17-0.46 2.2 0.36 3 0.99 0.96 1.1 0.7 0.54-1.29-0.52-1.83-0.39-2.3 0.5-1.75 0.85 0.53 1.24-0.27 1.31-2.69 0.06-1.89-0.39-3.74-0.98-4.11-0.7-0.43-1.05 0.36-0.96 2.19z"/>
		<path id="Path 214" class="s19" d="m93.34 345.5c0.01 4.4 0.18 5.98 0.39 3.5 0.21-2.48 0.21-6.07 0-8-0.22-1.93-0.39 0.1-0.39 4.5z"/>
		<path id="Path 215" class="s37" d="m110.3 343c0 3.02 0.19 4.15 0.42 2.5 0.23-1.65 0.23-4.13 0-5.5-0.23-1.38-0.42-0.02-0.42 3z"/>
		<path id="Path 216" class="s38" d="m110.61 353.25c-0.33 8.39-0.81 17.73-1.08 20.75-0.4 4.65-0.32 5.04 0.54 2.5 0.56-1.65 1.28-10.99 1.6-20.75 0.33-9.76 0.35-17.75 0.07-17.75-0.29 0-0.8 6.86-1.13 15.25z"/>
		<path id="Path 217" class="s60" d="m98.65 341c-0.43 1.38-0.53 2.73-0.22 3 0.32 0.27 0.81 0.27 1.11 0 0.3-0.27 0.39-1.63 0.21-3l-0.32-2.5z"/>
		<path id="Path 218" class="s45" d="m102.15 340.75c-0.08 1.24-0.44 3.04-0.8 4-0.47 1.28-0.33 1.48 0.55 0.75 0.65-0.55 1.01-2.35 0.79-4q-0.39-3.08-0.54-0.75z"/>
		<path id="Path 219" class="s20" d="m93.97 347.75c0.02 3.44 0.48 6.48 1.03 6.75 0.64 0.32 0.83-1.76 0.52-5.75-0.26-3.44-0.72-6.48-1.03-6.75-0.3-0.27-0.53 2.31-0.52 5.75z"/>
		<path id="Path 220" class="s60" d="m115.66 344.75c-0.37 1.82-1.21 3.14-1.91 3-0.82-0.16-1.16 0.78-1 2.75 0.14 1.65 0.82 3.3 1.5 3.68 0.79 0.42 0.97 1.43 0.5 2.75q-0.75 2.07 0.76 3.32c1.27 1.05 1.5 0.92 1.39-0.75-0.07-1.1 0.14-4.25 0.47-7 0.32-2.75 0.22-6.35-0.23-8l-0.83-3z"/>
		<path id="Path 221" class="s24" d="m97.62 345.75c-0.37 1.36-0.12 2.5 0.63 2.88 0.95 0.47 0.89 0.85-0.25 1.57-1.11 0.7-1.17 1.06-0.25 1.38 0.9 0.3 0.97 0.97 0.25 2.42-0.6 1.19-0.64 2.51-0.11 3.25 0.49 0.69 1.12 2.15 1.39 3.25 0.27 1.1 0.53-1.6 0.59-6 0.05-4.4-0.29-8.68-0.77-9.5-0.7-1.22-0.98-1.08-1.48 0.75z"/>
		<path id="Path 222" class="s29" d="m109.31 352.5c0.01 3.3 0.19 4.43 0.41 2.5 0.22-1.93 0.22-4.63-0.01-6-0.22-1.38-0.41 0.2-0.4 3.5z"/>
		<path id="Path 223" class="s11" d="m118.97 351.25c0.02 2.82 0.44 4.55 1.03 4.25 0.55-0.27 0.66-1.06 0.25-1.74-0.44-0.73-0.34-0.97 0.25-0.57 0.55 0.37 1.55 0.37 2.22-0.01 0.87-0.49 0.5-1.53-1.28-3.68l-2.5-3z"/>
		<path id="Path 224" class="s58" d="m109.72 358.5c-0.43 6.05-0.56 11.23-0.29 11.5 0.27 0.27 0.76-1.98 1.1-5 0.34-3.02 0.47-8.2 0.29-11.5-0.27-5.02-0.45-4.21-1.1 5z"/>
		<path id="Path 225" class="s7" d="m91.98 353.7c-0.26 2.86-0.13 4.89 0.3 4.5 0.43-0.38 0.65-2.72 0.48-5.2l-0.3-4.5z"/>
		<path id="Path 226" class="s61" d="m107.63 354.25c-0.34 2.89-0.62 7.84-0.62 11-0.01 3.17 0.44 5.75 0.99 5.75 0.61 0 1-4.33 1-11 0-6.05-0.17-11-0.38-11-0.2 0-0.65 2.36-0.99 5.25z"/>
		<path id="Path 227" class="s33" d="m100.95 351.25c-0.02 0.69-0.14 3.57-0.25 6.4-0.11 2.84 0.14 4.98 0.55 4.75 0.41-0.22 0.92 1.06 1.13 2.85 0.2 1.79 0.35-0.91 0.32-6-0.04-5.09-0.43-9.25-0.88-9.25-0.45 0-0.84 0.56-0.87 1.25z"/>
		<path id="Path 228" class="s37" d="m103.37 360.5c0 5.5 0.17 7.52 0.37 4.5 0.2-3.02 0.2-7.52-0.01-10-0.2-2.48-0.37 0-0.36 5.5z"/>
		<path id="Path 229" class="s38" d="m104.27 355c0 2.48 0.2 3.38 0.44 2 0.23-1.38 0.23-3.4 0-4.5-0.24-1.1-0.44 0.02-0.44 2.5z"/>
		<path id="Path 230" class="s7" d="m119.32 357.84c0.1 1.01 0.63 1.83 1.18 1.83 0.55 0 1.02-0.83 1.04-1.84 0.02-1-0.52-1.83-1.19-1.83-0.67 0-1.13 0.83-1.03 1.84z"/>
		<path id="Path 231" class="s22" d="m90.99 359.41c-0.82 0.9-1.14 1.96-0.72 2.36 0.42 0.4 1.25 0.28 1.84-0.27 0.59-0.55 0.91-1.61 0.72-2.36-0.28-1.07-0.66-1.02-1.84 0.27z"/>
		<path id="Path 232" class="s26" d="m93.61 360.51c-0.33 0.82-0.61 2.05-0.61 2.74 0 0.69 0.67 1.25 1.5 1.25 0.83 0 1.5-0.56 1.5-1.25 0-0.69 0.45-1.25 1-1.25 0.58 0 0.78 1.56 0.46 3.75-0.39 2.74-0.26 3.35 0.49 2.25 0.81-1.19 1.05-0.88 1.17 1.5 0.1 1.94 0.29 2.29 0.55 1 0.22-1.1 0.03-3.8-0.43-6-0.46-2.2-1.26-4.01-1.78-4.02-0.53 0-1.47-0.34-2.1-0.74-0.62-0.4-1.41-0.06-1.75 0.77z"/>
		<path id="Path 233" class="s45" d="m112 362c0 1.1 0.45 2 1 2 0.55 0 1-0.9 1-2 0-1.1-0.45-2-1-2-0.55 0-1 0.9-1 2z"/>
		<path id="Path 234" class="s56" d="m89.35 369.5c0 4.95 0.17 7.2 0.38 5 0.21-2.2 0.21-6.25 0.01-9-0.21-2.75-0.38-0.95-0.39 4z"/>
		<path id="Path 235" class="s23" d="m106.3 366c0 3.02 0.19 4.15 0.42 2.5 0.23-1.65 0.23-4.13 0-5.5-0.23-1.38-0.42-0.02-0.42 3z"/>
		<path id="Path 236" class="s38" d="m104.27 366c0 2.48 0.2 3.38 0.44 2 0.23-1.38 0.23-3.4 0-4.5-0.24-1.1-0.44 0.02-0.44 2.5z"/>
		<path id="Path 237" class="s30" d="m92.15 363.75c-0.08 0.69-0.6 1.02-1.15 0.75-0.55-0.27-0.99 0.51-0.98 1.75 0 1.24 0.43 2.93 0.94 3.75 0.83 1.33 1 1.33 1.54 0 0.33-0.82 0.43-2.85 0.2-4.5-0.22-1.65-0.47-2.44-0.55-1.75z"/>
		<path id="Path 238" class="s59" d="m113.05 363.66c-0.96 0.34-1.39 1.75-1.28 4.17 0.1 2.02 0.38 3.44 0.63 3.17 0.25-0.28 0.64-1.63 0.87-3 0.23-1.38 0.7-3.06 1.04-3.75 0.34-0.69 0.52-1.21 0.4-1.17-0.11 0.04-0.86 0.3-1.66 0.58z"/>
		<path id="Path 239" class="s17" d="m93.48 364.68c-0.45 0.36-0.68 4.07-0.51 8.24 0.17 4.17 0.47 6.57 0.67 5.33 0.2-1.24 0.92-2.26 1.61-2.27q1.25-0.01-0.25-0.98-1.5-0.97-0.25-0.98c0.75-0.01 1.35-1.65 1.5-4.1 0.14-2.24-0.25-4.49-0.85-4.99-0.61-0.5-1.47-0.62-1.92-0.25z"/>
		<path id="Path 240" class="s27" d="m100.31 371.5c0.01 3.3 0.19 4.43 0.41 2.5 0.22-1.93 0.22-4.63-0.01-6-0.22-1.38-0.41 0.2-0.4 3.5z"/>
		<path id="Path 241" class="s39" d="m98.12 369.25c-0.07 1.51-0.57 2.75-1.12 2.75-0.55 0-0.78 0.45-0.5 1 0.28 0.55 0.84 0.82 1.25 0.6 0.41-0.23 0.75 0.45 0.75 1.5 0 1.04-0.68 1.91-1.5 1.92-1.33 0.01-1.33 0.12 0 0.98 0.82 0.53 1.84 0.98 2.25 0.98 0.41 0.01 0.7-1.44 0.63-3.23-0.06-1.79-0.46-4.6-0.88-6.25l-0.76-3z"/>
		<path id="Path 242" class="s59" d="m101.21 370.5c0 2.2 0.35 5.13 0.79 6.5l0.8 2.5c0.07-3.88-0.29-6.8-0.74-9l-0.83-4z"/>
		<path id="Path 243" class="s24" d="m112.93 369.77c-0.32 0.95-0.69 4.43-0.84 7.73-0.14 3.3-0.02 5.77 0.27 5.5 0.28-0.27 0.66-2.19 0.83-4.25 0.17-2.07 0.53-3.76 0.81-3.76 0.27 0 0.4-1.46 0.28-3.24-0.13-1.79-0.35-3.36-0.5-3.48-0.16-0.13-0.54 0.54-0.85 1.5z"/>
		<path id="Path 244" class="s31" d="m118.26 370.75c0.13 1.81 0.79 3.25 1.49 3.25 0.69 0 1.25-0.45 1.25-1 0-0.55 0.45-1 1-1 0.55 0 1 0.68 1 1.5 0 0.82 0.79 1.51 1.75 1.53 1.53 0.02 1.48-0.26-0.44-2.25-1.2-1.26-2.22-2.62-2.25-3.03-0.03-0.41-0.36-1.09-0.72-1.5-0.36-0.41-0.36-0.19 0 0.5 0.36 0.69 0.21 1.48-0.34 1.75-0.55 0.27-1.45-0.29-1.99-1.25-0.79-1.39-0.94-1.09-0.75 1.5z"/>
		<path id="Path 245" class="s34" d="m104.27 374c0 2.48 0.2 3.38 0.44 2 0.23-1.38 0.23-3.4 0-4.5-0.24-1.1-0.44 0.02-0.44 2.5z"/>
		<path id="Path 246" class="s62" d="m106.97 379.75c-0.01 4.81 0.15 8.52 0.36 8.25 0.22-0.27 0.66-4.21 0.98-8.75 0.35-4.93 0.2-8.25-0.36-8.25-0.52 0-0.96 3.94-0.98 8.75z"/>
		<path id="Path 247" class="s43" d="m89.91 375.28c0 0.67 0.72 1.9 1.59 2.72 1.42 1.35 1.58 1.28 1.5-0.64-0.05-1.18-0.77-2.41-1.59-2.72-0.83-0.32-1.5-0.03-1.5 0.64z"/>
		<path id="Path 248" class="s32" d="m120 374.89q1.53 1.09 0.25 1.09c-0.69 0.01-1.03 0.47-0.75 1.02 0.28 0.55-0.06 1.19-0.75 1.42q-1.2 0.42 0.25 0.48c0.83 0.03 2.63-0.82 4-1.9 2.03-1.58 2.17-1.96 0.75-1.98-0.96-0.01-2.54-0.29-3.5-0.61-1.47-0.5-1.51-0.43-0.25 0.48z"/>
		<path id="Path 249" class="s41" d="m94.28 378.32c-0.59 1.54-1.12 3.23-1.18 3.75-0.05 0.51 0.57 0.25 1.4-0.57 0.83-0.82 1.36-2.51 1.18-3.75-0.3-2.12-0.39-2.08-1.4 0.57z"/>
		<path id="Path 250" class="s63" d="m108.29 381.5c0 2.83 0.19 3.7 0.42 2 0.23-1.65 0.23-3.9-0.01-5-0.24-1.1-0.42 0.25-0.41 3z"/>
		<path id="Path 251" class="s55" d="m112.98 379.25c0.01 1.51-0.21 3.31-0.49 4-0.28 0.69 0.11 1.25 0.87 1.25 0.8 0 1.12-0.57 0.76-1.34-0.34-0.73-0.1-1.63 0.54-2 0.86-0.49 0.79-1.18-0.26-2.66-1.38-1.93-1.43-1.9-1.42 0.75z"/>
		<path id="Path 252" class="s64" d="m89.35 386.5c0 4.95 0.17 7.2 0.38 5 0.21-2.2 0.21-6.25 0.01-9-0.21-2.75-0.38-0.95-0.39 4z"/>
		<path id="Path 253" class="s39" d="m115.99 380.5c-0.02 1.65-0.9 3.9-1.95 5-1.12 1.16-2.05 3.76-2.23 6.21-0.17 2.31 0.14 4.65 0.69 5.2q1 1 1.3-4.7c0.17-3.14 0.73-6.27 1.25-6.96 0.52-0.69 1.4-1.02 1.95-0.75 0.55 0.27 0.99-0.51 0.98-1.75 0-1.24-0.45-2.93-0.98-3.75-0.75-1.15-0.98-0.81-1.01 1.5z"/>
		<path id="Path 254" class="s41" d="m98.55 380.5c0.28 0.94-0.2 1.48-1.3 1.46-1.45-0.04-1.54 0.21-0.5 1.5 0.69 0.84 1.7 1.31 2.25 1.04 0.55-0.27 1-1.63 1-3 0-1.38-0.43-2.5-0.95-2.5-0.53 0-0.75 0.68-0.5 1.5z"/>
		<path id="Path 255" class="s59" d="m102.31 385.5c0.01 3.3 0.19 4.43 0.41 2.5 0.22-1.93 0.22-4.63-0.01-6-0.22-1.38-0.41 0.2-0.4 3.5z"/>
		<path id="Path 256" class="s47" d="m93.58 382.5c-0.32 0.82-0.59 6.79-0.61 13.25-0.03 10.5 0.18 11.96 1.99 13.75l2.03 2c-0.01-12.4 0.22-16.23 0.49-16.5 0.28-0.27 0.1-0.95-0.4-1.5-0.56-0.62-0.41-1 0.41-1 0.73 0 1.02 0.45 0.66 0.99-0.38 0.58-0.13 0.68 0.6 0.25 0.69-0.41 1.25-1.19 1.25-1.74 0-0.55-0.79-1.03-1.75-1.07-1.5-0.06-1.46-0.2 0.25-0.93 1.71-0.73 1.75-0.87 0.25-0.93-0.96-0.04-1.99-0.86-2.29-1.82-0.29-0.96-0.46-2.2-0.38-2.75 0.09-0.55 0.1-1.56 0.04-2.25-0.07-0.69-0.53-1.25-1.04-1.25-0.5 0-1.17 0.68-1.5 1.5z"/>
		<path id="Path 257" class="s27" d="m110.14 382.5c-0.09 1.1-0.42 3.13-0.72 4.5-0.47 2.09-0.38 2.22 0.51 0.75 0.59-0.96 0.91-2.99 0.72-4.5-0.21-1.65-0.42-1.95-0.51-0.75z"/>
		<path id="Path 258" class="s49" d="m89.83 383.17c0.09 0.45 0.62 0.83 1.17 0.83 0.55 0 1.15 1.91 1.33 4.25 0.28 3.71 0.32 3.6 0.33-0.83 0-3.86-0.36-5.09-1.49-5.09-0.83 0-1.43 0.38-1.34 0.84z"/>
		<path id="Path 259" class="s27" d="m104.11 385c0.05 0.82 0.45 2.63 0.89 4l0.8 2.5c0.13-3.88-0.27-5.68-0.8-6.5-0.86-1.33-0.96-1.33-0.89 0z"/>
		<path id="Path 260" class="s65" d="m106.29 391c-0.03 3.02 0.25 6.85 0.62 8.5l0.67 3c1.1-5.43 1-7.23 0.49-7.5-0.5-0.27-1.1-2.52-1.32-5-0.38-4.22-0.4-4.16-0.46 1z"/>
		<path id="Path 261" class="s65" d="m108.27 390c0 2.48 0.2 3.38 0.44 2 0.23-1.38 0.23-3.4 0-4.5-0.24-1.1-0.44 0.02-0.44 2.5z"/>
		<path id="Path 262" class="s39" d="m115.64 386.75c-0.26 0.41 0.18 1.65 0.97 2.75 1.37 1.93 1.42 1.9 1.41-0.75-0.01-1.51-0.45-2.75-0.97-2.75-0.52 0-1.16 0.34-1.41 0.75z"/>
		<path id="Path 263" class="s60" d="m104.11 389c-0.04 1.38 0.36 3.18 0.89 4 0.86 1.33 0.96 1.33 0.89 0-0.05-0.82-0.45-2.63-0.89-4l-0.8-2.5z"/>
		<path id="Path 264" class="s60" d="m109.58 389.25c-0.25 1.24-0.37 3.04-0.27 4 0.11 0.96 0.53 1.75 0.94 1.75 0.41 0 0.75-1.8 0.75-4 0-2.2-0.22-4-0.48-4-0.27 0-0.69 1.01-0.94 2.25z"/>
		<path id="Path 265" class="s66" d="m90.5 388.55c-0.46 0.43-0.76 3.63-0.67 7.12 0.09 3.48 0.63 7.57 1.18 9.08 0.56 1.51 1.22 2.52 1.46 2.25 0.25-0.27 0.09-4.72-0.34-9.87-0.43-5.15-1.17-9.01-1.63-8.58z"/>
		<path id="Path 266" class="s66" d="m119.99 391.01c0 1.09-0.44 1.76-0.99 1.49-0.6-0.3-1 1.42-1.01 4.25-0.01 2.61 0.33 6.23 0.75 8.05 0.49 2.14 1.28 3.19 2.24 3 0.82-0.17 1.63-1.2 1.81-2.3 0.25-1.59 0.13-1.7-0.61-0.5-0.71 1.14-1.08 1.2-1.55 0.25-0.35-0.69 0.04-1.81 0.85-2.5 0.81-0.69 1.58-2.82 1.7-4.75 0.12-1.93 0.59-3.73 1.03-4 0.45-0.27-0.32-1.51-1.71-2.74-2.44-2.17-2.53-2.18-2.51-0.25z"/>
		<path id="Path 267" class="s59" d="m104.09 404.25c-0.05 5.91 0.25 10.93 0.66 11.15 0.41 0.23 0.85-3.26 0.98-7.75 0.13-4.48-0.17-9.5-0.66-11.15-0.67-2.23-0.92-0.25-0.98 7.75z"/>
		<path id="Path 268" class="s47" d="m115.85 395.28c-1.32 0.97-1.43 1.62-0.54 3.22 0.61 1.1 1.28 3.13 1.48 4.5 0.19 1.38 0.44 2.58 0.53 2.67 0.1 0.09 0.25-2.5 0.33-5.75 0.09-3.26 0.09-5.91 0-5.89-0.08 0.02-0.89 0.58-1.8 1.25z"/>
		<path id="Path 269" class="s67" d="m123.15 400c-0.09 3.71 0.23 5.81 0.85 5.5 0.55-0.27 0.78-0.95 0.5-1.5-0.28-0.55-0.16-1 0.25-1 0.41 0 0.63-2.03 0.48-4.5-0.15-2.48-0.65-4.5-1.11-4.5-0.46 0-0.89 2.7-0.97 6z"/>
		<path id="Path 270" class="s47" d="m98.88 395.75c-0.06 0.41-0.06 1.09 0 1.5 0.07 0.41 0.14 4.46 0.17 9 0.02 4.54 0.27 8.02 0.54 7.75 0.28-0.27 0.6-4.66 0.72-9.75 0.12-5.09-0.13-9.25-0.55-9.25-0.42 0-0.81 0.34-0.88 0.75z"/>
		<path id="Path 271" class="s24" d="m109.5 397.67c-0.46 0.36-0.75 3.85-0.66 7.75 0.1 3.89 0.51 8.74 0.92 10.76 0.41 2.03 1.08 3.49 1.49 3.25 0.41-0.24 0.28-1.67-0.3-3.18-0.58-1.51-0.91-6.46-0.75-11 0.17-4.54 0.26-8.25 0.22-8.25-0.05 0-0.46 0.3-0.92 0.67z"/>
		<path id="Path 272" class="s39" d="m110.81 401.5c-0.17 2.2-0.04 6.02 0.29 8.5l0.6 4.5c0.42-6.98 0.48-9.34 0.42-9.75-0.07-0.41 0.59-1.31 1.45-2 1.4-1.12 1.36-1.46-0.45-3.25l-2.01-2z"/>
		<path id="Path 273" class="s41" d="m98.27 404c0 2.48 0.2 3.38 0.44 2 0.23-1.38 0.23-3.4 0-4.5-0.24-1.1-0.44 0.02-0.44 2.5z"/>
		<path id="Path 274" class="s41" d="m114.03 408.26c0.22 5.62 0.38 6.04 1.61 4.24 1.08-1.59 1.11-2.17 0.11-2.83-1-0.66-1-0.91 0-1.25 1-0.34 1-0.76 0-2.11-1-1.36-1-1.56 0-1 0.74 0.41 1.23 0.12 1.2-0.7-0.02-0.77-0.74-1.66-1.6-1.99-1.32-0.51-1.52 0.35-1.32 5.64z"/>
		<path id="Path 275" class="s41" d="m100.25 407.38c-0.8 1.68-0.89 2.8-0.25 3.12 0.55 0.27 1.3 0.27 1.67 0 0.36-0.27 0.03-0.48-0.75-0.46-1.15 0.04-1.19-0.24-0.17-1.5 0.69-0.84 1.14-2.05 1-2.66-0.14-0.62-0.81 0.05-1.5 1.5z"/>
		<path id="Path 276" class="s68" d="m107.07 408.25c0.06 2.72 0.21 2.93 0.93 1.25 0.47-1.1 0.89-2.56 0.93-3.25 0.04-0.69-0.38-1.25-0.93-1.25-0.55 0-0.97 1.46-0.93 3.25z"/>
		<path id="Path 277" class="s69" d="m119.05 408.29c1.07 1.33 1.12 1.79 0.2 1.75-0.69-0.02-1.5 0.75-1.81 1.71-0.37 1.15 0.5 0.71 2.52-1.25 1.69-1.65 3.09-3.23 3.11-3.5 0.01-0.27-0.56 0.05-1.28 0.73-1.02 0.97-1.6 0.97-2.74 0-1.27-1.08-1.27-1 0 0.56z"/>
		<path id="Path 278" class="s65" d="m107.35 415.75c0.41 1.41 0.18 2.41-0.6 2.67q-1.19 0.41 0.25 0.46c1.33 0.03 1.33 0.23 0 1.83-1.37 1.64-1.35 1.68 0.25 0.54 1-0.71 1.64-2.28 1.5-3.64-0.14-1.32-0.65-2.78-1.15-3.25-0.52-0.51-0.63 0.07-0.25 1.39z"/>
	</g>
</svg>